P1
# CREATOR: GIMP PNM Filter Version 1.1
60 80
1111111111111111111111111111111111111111111111111111111111111111111111
1111111111111111111111111111111111111111111111111111111111111111111111
1111111111111111111111111111111111111111111111111111111111111111111111
1111111111111111111111111111111111111111111111111111111111111111111111
1111111111111111111111111111111111111111111111111111111111111111111111
1111111111111111111111111111111111111111111111111111111111111111111111
1111111111111111111111111111111111111111111111111111111111111111111111
1111111111111111111111111111111111111111111111111111111111111111111111
1111111111111111111111111111111111111111111111111111111111111111111111
1111111111111111111111111111111111111111111111111111111111111101011111
1111111111111111111111111111111111111111111111111000000001111111111111
1111111111111111111111111111111111111100000000000111111111111111111111
1111111111111111111111111110000000000000111111111111111111111111111111
1111111111111111000110001100000111111111111111111111111111111011111111
1111100001110111000000111111111111111111111111001111011111111111100001
1001110000001111111111111111111100000001110111111111110000011001100000
0001100011111111111110000000001110111111111100000010010000000001100001
1111111111100000000111101111111111000011111110000000010000111111111111
1000000000101011111111110001110001110000000100001111111111111000000000
1110011111111000110000000110000001000110111111111111000000000110011111
1110001000000000100000010001100011111111110000000011100111111110011000
0000011000000100001000011111111100000000011011111111100110000000011000
0001000010000011111111000000001100111111110001000000001100000001100011
0000111111111000000111011111111100011000000111000000011000010000011111
1111010111000111111111000110000111000000000010000110000011111111111111
0001111111100001111111100000000000100100100000011111111111110001111101
1000000111000000000000001101001100000111111111111100001000010000000000
0000000000000011011001100000111111111111100010001100000000011010000000
0000100010001000001111111111001000100010000001111111111100000000110011
0011000001111111110011001000100000111000000001110000001100000001100011
1111111000101101011000111000000000000110000001000000001000111111111000
0001011100001000000000000000100000011001000011011111111111000001011100
0110000000000000001100000010011000011111111111111001110011001100000000
0000000001100000110000000111111111111111111000100010000000000000000000
1000001100000000111111111111111110001001100000000000000000001100000100
1000001111111111111111100010011000000000000000000001000011001000001111
1111111111111100100100000000000000000000011000010011000011111111111111
1111011001000000000000000000000110001100010000111111111111111111011001
0000000000000000000000100011000110001111111111111111111110110000000000
0000000000001000010000100011111111111111111111100100000000000000000000
0010000100001111111111111111111111111011000000000000000000000010000110
0001111111111111111111111110110000000000000000000000100000110001111111
1111111111111111100100000000000000000000001000000110111111111111111111
1111111011000000000000000000000010000001111111111111111111111111111001
0000000000000000000000100000011111111111111111111111111110110000000000
0000000000001000000111111111111111111111111111100100000000000000000000
0110000001111111111111111111111111111101000000000000000000000110000011
1111111111111111111111111111011000000000000000000001000000111111111111
1111111111111111111010000000000000000000010000011111111111111111111111
1111111111100000000000000000001100001111111111111111111111111111111111
1000000000000000000010000111111111111111111111111111111100011100000000
0000000001100011011111111111111111111111111110000111000000000000000001
0111100001111111111111111111111111111000011110000000000000111111000000
1111111111111111111111111110000010111110100101111110000001111111111111
1111111111111111101000000111111111111111000000001111111111111111111111
1111111111100011111111111111110001110011111111111111111111111111111111
1001111111111111111110001111111111111111111111111111111111110111111111
1111111111110011111111111111111111111111111111111111111111111111111111
1111111111111111111111111111111111111111111111111111111111111111111111
1111111111111111111111111111111111111111111111111111111111111111111111
1111111111111111111111111111111111111111111111111111111111111111111111
1111111111111111111111111111111111111111111111111111111111111111111111
1111111111111111111111111111111111111111111111111111111111111111111111
1111111111111111111111111111111111111111111111111111111111111111111111
1111111111111111111111111111111111111111111111111111111111111111111111
1111111111111111111111111111111111111111111111111111111111111111111111
1111111111111111111111111111111111111111111111111111111111111111111111
1111111111111111111111111111111111111111111111111111111111111111111111
1111111111111111111111111111111111111111