P1
# CREATOR: GIMP PNM Filter Version 1.1
60 80
1111111111111111111111111111111111111111111111111111111111111111111111
1100011111111111111111111111111111111111111111111111111111111000000111
1111111111111111111111111111111111111111111111111111000010111111111111
1111111111111111111111111111111111111111011001101111111111111111111111
1111111111111111111111111111110100110011111111111111111111111111111111
1111111111111111111001001001111111111111111111111111111111111111111111
1111111100010010011111111111111111111111111111111111111111111111111100
1101000111111111111111111111111111111111111111111111111110001001000111
1111111111111111111111111111111111111111111111100010100001111111111111
1111111111111111111111111111111111111001101000111111111110000111111111
1111111111111101111111111110010100001111111110000000011111111111111111
1001011111111111000101000011111110000000000011111111111110011001001111
1111110011110001111111000000000000001111111111100010010011111111110010
1000011111000000000000000001111111111000100010111111111001001000111111
0001111000000000011111111111001100100111111110010100011111100011001101
1100000111111111110001000101111111101001000111111000100001110110000011
1111111100011001011110001100010011111110011000011000100000111111111110
0010010111000010001000111111000101100100001000001111111111100010001111
0001100010011111110001111001100010000011111111111000100111110011000110
1111111100001000011000100000111111111111001111111100100001001111111100
0011111100001000001111111111110011111111011000100111110011111111001111
1110000011111111111100011111111100010001111100000000000001110000000011
1111111111000111111110001000011111111000000000000100000000111111111111
1000110001010100001011111111111111100011000000000111111111111001100001
1110000110011111110000101111100000000001111111111111110000011100101100
0111111000001000001000000000011111111111000100000110010010000111111000
0010000111000000000111111111000011110001001001000000111110000110000101
1000000001111111100000100100010110100000001111000011100001001000000001
1111110000001001101110001100000001100001101100100010000000011111100000
0001001111100111000000000000010001111000010000000111110000000001001111
1101111000000000001000000000000100000001111000000000001001111111111000
0000000010000000000001000000011000000000001110001111111111000000000100
0000000000011000000000000000000111100011111111111000000001000000000000
0010000000000000000011111100111111111111000000110000000000000010000000
0000000001111111011111111111110000001000000000000000100000000000000011
1111111111111111111110000110000000000000001100000000000011111111111111
1111111111100010000000000000000001000000000001111111111111111111111111
1001100000000000000000010000000000111111111111111111111111111011000000
0000000000000010000000111111111111111111111111111110100000000000000000
0000100000011111111111111111111111111111110000000000000000000000100000
1111111111111111111111111111111100000000000000000000000100001111111111
1111111111111111111110000000000000000000000001000001111111111111111111
1111111111000000000000000000000000010000011111111111111111111111111111
0000000000000000000000000110000111111111111111111111111111100000000000
0000000000000000100001111111111111111111111111111000000000000000000000
0000001100011111111111111111111111111110000000000000000000000000000100
0111111111111111111111111111100000000000000000000000000000101111111111
1111111111111111111000000000000000000000000000001011111111111111111111
1111111110000000000000000000000000000010111111111111111111111111111110
0000000000000000000000000000111111111111111111111111111111111110000000
0000000000000000000111111111111111111111111111110000100000000000000000
0000000001111111111111111111111111110000000100000000000000000000000001
1111111111111111111111111000000001000000000000000000000000011111111111
1111111111111000000000010000000000000000000000000111111111111111111111
1110100000000111100000000000000000000001111111111111111111111111100000
0011111111111111000000000000011111111111111111111111111000000111111111
1111111111000011111111111111111111111111111100100011111111111111111111
1001100000011111111111111111111111111001111111111111111111111110000000
0111111111111111111111111111111111111111111111111111100000000011111111
1111111111111111111111111111111111111111111000000000111111111111111111
1111111111111111111111111111111110000000001111111111111111111111111111
1111111111111111111111100000000001111111111111111111111111111111111111
1111111111111100000010011111111111111111111111111111111111111111111111
1111001001111111111111111111111111111111111111111111111111111111101100
1111111111111111111111111111111111111111111111111111111111111111111111
1111111111111111111111111111111111111111111111111111111111111111111111
1111111111111111111111111111111111111111111111111111111111111111111111
1111111111111111111111111111111111111111111111111111111111111111111111
1111111111111111111111111111111111111111