P3
# CREATOR: GIMP PNM Filter Version 1.1
60 80
255
0
0
0
0
0
0
0
0
0
0
0
0
0
0
0
0
0
0
0
0
0
0
0
0
0
0
0
0
0
0
0
0
0
78
78
78
134
134
134
152
152
152
139
139
139
84
84
84
0
0
0
0
0
0
0
0
0
0
0
0
0
0
0
0
0
0
0
0
0
0
0
0
0
0
0
0
0
0
0
0
0
0
0
0
0
0
0
0
0
0
0
0
0
0
0
0
0
0
0
0
0
0
0
0
0
0
0
0
0
0
0
0
0
0
0
0
0
0
0
0
0
0
0
0
0
0
0
0
0
0
0
0
0
0
0
0
0
0
0
0
0
0
0
0
0
0
0
0
0
0
0
0
0
0
0
0
0
0
0
0
0
0
0
0
0
0
0
0
0
0
0
0
0
0
0
0
0
0
0
0
0
0
0
0
0
0
0
0
0
0
0
0
0
0
0
0
0
0
0
0
0
0
0
0
0
0
0
0
0
0
56
56
56
192
192
192
243
243
243
253
253
253
243
243
243
238
238
238
165
165
165
27
27
27
0
0
0
0
0
0
0
0
0
0
0
0
0
0
0
0
0
0
0
0
0
0
0
0
0
0
0
0
0
0
0
0
0
0
0
0
0
0
0
0
0
0
0
0
0
0
0
0
0
0
0
0
0
0
0
0
0
0
0
0
0
0
0
0
0
0
0
0
0
0
0
0
0
0
0
0
0
0
0
0
0
0
0
0
0
0
0
0
0
0
0
0
0
0
0
0
0
0
0
0
0
0
0
0
0
0
0
0
0
0
0
0
0
0
0
0
0
0
0
0
0
0
0
0
0
0
0
0
0
0
0
0
0
0
0
0
0
0
0
0
0
0
0
0
0
0
0
0
0
0
0
0
0
10
10
10
140
140
140
236
236
236
253
253
253
253
253
253
253
253
253
253
253
253
222
222
222
72
72
72
2
2
2
0
0
0
0
0
0
0
0
0
0
0
0
0
0
0
0
0
0
0
0
0
0
0
0
0
0
0
0
0
0
0
0
0
0
0
0
0
0
0
0
0
0
0
0
0
0
0
0
0
0
0
0
0
0
0
0
0
0
0
0
0
0
0
0
0
0
0
0
0
0
0
0
0
0
0
0
0
0
0
0
0
0
0
0
0
0
0
0
0
0
0
0
0
0
0
0
0
0
0
0
0
0
0
0
0
0
0
0
0
0
0
0
0
0
0
0
0
0
0
0
0
0
0
0
0
0
0
0
0
0
0
0
0
0
0
0
0
0
0
0
0
0
0
0
0
0
0
0
0
0
54
54
54
179
179
179
247
247
247
247
247
247
253
253
253
198
198
198
184
184
184
184
184
184
118
118
118
11
11
11
0
0
0
0
0
0
0
0
0
0
0
0
0
0
0
0
0
0
0
0
0
0
0
0
0
0
0
0
0
0
0
0
0
0
0
0
0
0
0
0
0
0
0
0
0
0
0
0
0
0
0
0
0
0
0
0
0
0
0
0
0
0
0
0
0
0
0
0
0
0
0
0
0
0
0
0
0
0
0
0
0
0
0
0
0
0
0
0
0
0
0
0
0
0
0
0
0
0
0
0
0
0
0
0
0
0
0
0
0
0
0
0
0
0
0
0
0
0
0
0
0
0
0
0
0
0
0
0
0
0
0
0
0
0
0
0
0
0
0
0
0
0
0
0
0
0
0
6
6
6
103
103
103
238
238
238
47
47
47
80
80
80
221
221
221
184
184
184
184
184
184
184
184
184
92
92
92
7
7
7
0
0
0
0
0
0
0
0
0
0
0
0
0
0
0
0
0
0
0
0
0
0
0
0
0
0
0
0
0
0
0
0
0
0
0
0
0
0
0
0
0
0
0
0
0
0
0
0
0
0
0
0
0
0
0
0
0
0
0
0
0
0
0
0
0
0
0
0
0
0
0
0
0
0
0
0
0
0
0
0
0
0
0
0
0
0
0
0
0
0
0
0
0
0
0
0
0
0
0
0
0
0
0
0
0
0
0
0
0
0
0
0
0
0
0
0
0
0
0
0
0
0
0
0
0
0
0
0
0
0
0
0
0
0
0
0
0
0
0
0
0
0
0
0
0
0
0
5
5
5
126
126
126
227
227
227
100
100
100
145
145
145
231
231
231
184
184
184
184
184
184
184
184
184
40
40
40
0
0
0
0
0
0
0
0
0
0
0
0
0
0
0
0
0
0
0
0
0
0
0
0
0
0
0
0
0
0
0
0
0
0
0
0
0
0
0
0
0
0
0
0
0
0
0
0
0
0
0
0
0
0
0
0
0
0
0
0
0
0
0
0
0
0
0
0
0
0
0
0
0
0
0
0
0
0
0
0
0
0
0
0
0
0
0
0
0
0
0
0
0
0
0
0
0
0
0
0
0
0
0
0
0
0
0
0
0
0
0
0
0
0
0
0
0
0
0
0
0
0
0
0
0
0
0
0
0
0
0
0
0
0
0
0
0
0
0
0
0
0
0
0
0
0
0
0
0
0
29
29
29
236
236
236
220
220
220
115
115
115
140
140
140
224
224
224
184
184
184
184
184
184
184
184
184
69
69
69
0
0
0
0
0
0
0
0
0
0
0
0
0
0
0
0
0
0
0
0
0
0
0
0
0
0
0
0
0
0
0
0
0
0
0
0
0
0
0
0
0
0
0
0
0
0
0
0
0
0
0
0
0
0
0
0
0
0
0
0
0
0
0
0
0
0
0
0
0
0
0
0
0
0
0
0
0
0
0
0
0
0
0
0
0
0
0
0
0
0
0
0
0
0
0
0
0
0
0
0
0
0
0
0
0
0
0
0
0
0
0
0
0
0
0
0
0
0
0
0
0
0
0
0
0
0
0
0
0
0
0
0
0
0
0
0
0
0
0
0
0
0
0
0
0
0
0
0
0
0
183
183
183
253
253
253
223
223
223
122
122
122
148
148
148
223
223
223
184
184
184
184
184
184
197
197
197
69
69
69
0
0
0
0
0
0
0
0
0
0
0
0
0
0
0
0
0
0
0
0
0
0
0
0
0
0
0
0
0
0
0
0
0
0
0
0
0
0
0
0
0
0
0
0
0
0
0
0
0
0
0
0
0
0
0
0
0
0
0
0
0
0
0
0
0
0
0
0
0
0
0
0
0
0
0
0
0
0
0
0
0
0
0
0
0
0
0
0
0
0
0
0
0
0
0
0
0
0
0
0
0
0
0
0
0
0
0
0
0
0
0
0
0
0
0
0
0
0
0
0
0
0
0
0
0
0
0
0
0
0
0
0
0
0
0
0
0
0
0
0
0
0
0
0
0
0
0
76
76
76
253
253
253
253
253
253
205
205
205
135
135
135
160
160
160
242
242
242
184
184
184
184
184
184
182
182
182
15
15
15
0
0
0
0
0
0
0
0
0
0
0
0
0
0
0
0
0
0
0
0
0
0
0
0
0
0
0
0
0
0
0
0
0
0
0
0
0
0
0
0
0
0
0
0
0
0
0
0
0
0
0
0
0
0
0
0
0
0
0
0
0
0
0
0
0
0
0
0
0
0
0
0
0
0
0
0
0
0
0
0
0
0
0
0
0
0
0
0
0
0
0
0
0
0
0
0
0
0
0
0
0
0
0
0
0
0
0
0
0
0
0
0
0
0
0
0
0
0
0
0
0
0
0
0
0
0
0
0
0
0
0
0
0
0
0
0
0
0
0
0
0
0
0
0
0
0
0
225
225
225
253
253
253
252
252
252
200
200
200
125
125
125
150
150
150
184
184
184
184
184
184
184
184
184
111
111
111
11
11
11
0
0
0
0
0
0
0
0
0
0
0
0
0
0
0
0
0
0
0
0
0
0
0
0
0
0
0
0
0
0
0
0
0
0
0
0
0
0
0
0
0
0
0
0
0
0
0
0
0
0
0
0
0
0
0
0
0
0
0
0
0
0
0
0
0
0
0
0
0
0
0
0
0
0
0
0
0
0
0
0
0
0
0
0
0
0
0
0
0
0
0
0
0
0
0
0
0
0
0
0
0
0
0
0
0
0
0
0
0
0
0
0
0
0
0
0
0
0
0
0
0
0
0
0
0
0
0
0
0
0
0
0
0
0
0
0
0
0
0
0
0
0
0
0
126
126
126
253
253
253
252
252
252
252
252
252
75
75
75
131
131
131
140
140
140
184
184
184
184
184
184
176
176
176
54
54
54
1
1
1
0
0
0
0
0
0
0
0
0
0
0
0
0
0
0
0
0
0
0
0
0
0
0
0
0
0
0
0
0
2
6
12
23
7
13
25
0
0
1
0
0
0
0
0
0
0
0
0
0
0
0
0
0
0
0
0
0
0
0
0
0
0
0
0
0
0
0
0
0
0
0
0
0
0
0
0
0
0
0
0
0
0
0
0
0
0
0
0
0
0
0
0
0
0
0
0
0
0
0
0
0
0
18
18
18
71
71
71
48
48
48
0
0
0
0
0
0
0
0
0
0
0
0
0
0
0
0
0
0
0
0
0
0
0
0
0
0
0
0
0
0
27
27
27
253
253
253
253
253
253
244
244
244
211
211
211
117
117
117
140
140
140
213
213
213
184
184
184
184
184
184
80
80
80
16
16
16
0
0
0
0
0
0
0
0
0
0
0
0
0
0
0
0
0
0
0
0
0
0
0
0
98
145
239
98
145
239
98
145
239
98
145
239
98
145
239
98
145
239
98
145
239
98
145
239
0
0
0
0
0
0
0
0
0
0
0
0
0
0
0
0
0
0
0
0
0
0
0
0
0
0
0
0
0
0
0
0
0
0
0
0
0
0
0
0
0
0
5
2
0
17
7
0
19
19
19
63
63
63
111
111
111
171
171
171
243
243
243
200
200
200
67
67
67
0
0
0
0
0
0
0
0
0
0
0
0
0
0
0
0
0
0
0
0
0
0
0
0
0
0
0
178
178
178
253
253
253
251
251
251
244
244
244
220
220
220
122
122
122
135
135
135
184
184
184
184
184
184
184
184
184
0
0
0
0
0
0
0
0
0
0
0
0
0
0
0
0
0
0
0
0
0
0
0
0
98
145
239
98
145
239
98
145
239
98
145
239
98
145
239
98
145
239
98
145
239
98
145
239
98
145
239
98
145
239
98
145
239
0
0
0
0
0
0
0
0
0
0
0
0
0
0
0
0
0
0
0
0
0
0
0
0
0
0
0
0
0
0
0
0
0
0
0
0
10
4
0
77
33
0
115
62
19
150
139
131
192
192
192
197
197
197
213
213
213
253
253
253
255
255
255
169
169
169
13
13
13
0
0
0
0
0
0
0
0
0
0
0
0
0
0
0
0
0
0
0
0
0
54
54
54
253
253
253
253
253
253
253
253
253
227
227
227
85
85
85
135
135
135
164
164
164
184
184
184
184
184
184
162
162
162
0
0
0
0
0
0
0
0
0
0
0
0
0
0
0
0
0
0
0
0
0
98
145
239
98
145
239
98
145
239
98
145
239
98
145
239
98
145
239
98
145
239
98
145
239
98
145
239
98
145
239
98
145
239
98
145
239
98
145
239
0
0
0
0
0
0
0
0
0
0
0
0
0
0
0
0
0
0
0
0
0
0
0
0
0
0
0
0
0
0
0
0
0
4
2
0
89
38
0
128
58
1
167
136
111
197
197
197
197
197
197
212
212
212
252
252
252
255
255
255
247
247
247
91
91
91
0
0
0
0
0
0
0
0
0
0
0
0
0
0
0
0
0
0
0
0
0
0
0
0
212
212
212
253
253
253
249
249
249
190
190
190
118
118
118
135
135
135
186
186
186
184
184
184
184
184
184
88
88
88
0
0
0
0
0
0
0
0
0
0
0
0
0
0
0
0
0
0
98
145
239
98
145
239
98
145
239
98
145
239
98
145
239
98
145
239
98
145
239
98
145
239
98
145
239
98
145
239
98
145
239
98
145
239
98
145
239
98
145
239
98
145
239
0
0
0
0
0
0
0
0
0
0
0
0
0
0
0
0
0
0
0
0
0
0
0
0
0
0
0
0
0
0
0
0
0
62
27
0
127
56
0
147
96
55
192
188
185
195
195
195
204
204
204
248
248
248
255
255
255
255
255
255
163
163
163
5
5
5
0
0
0
0
0
0
0
0
0
0
0
0
0
0
0
0
0
0
77
77
77
253
253
253
249
249
249
245
245
245
85
85
85
135
135
135
166
166
166
184
184
184
184
184
184
220
220
220
65
65
65
2
2
2
0
0
0
0
0
0
0
0
0
0
0
0
98
145
239
98
145
239
98
145
239
98
145
239
98
145
239
98
145
239
98
145
239
98
145
239
98
145
239
98
145
239
98
145
239
98
145
239
98
145
239
98
145
239
98
145
239
98
145
239
98
145
239
0
0
0
0
0
0
0
0
0
0
0
0
0
0
0
0
0
0
0
0
0
0
0
0
0
0
0
0
0
0
36
15
0
122
54
0
130
63
9
176
156
140
197
197
197
200
200
200
239
239
239
255
255
255
255
255
255
221
221
221
38
38
38
0
0
0
0
0
0
0
0
0
0
0
0
0
0
0
0
0
0
227
227
227
253
253
253
249
249
249
207
207
207
122
122
122
135
135
135
177
177
177
184
184
184
186
186
186
234
234
234
95
95
95
3
3
3
0
0
0
0
0
0
0
0
0
0
1
3
98
145
239
98
145
239
98
145
239
100
151
254
170
198
254
156
188
254
64
127
254
98
145
239
98
145
239
47
116
255
58
123
254
98
145
239
98
145
239
98
145
239
98
145
239
98
145
239
98
145
239
0
0
0
0
0
0
0
0
0
0
0
0
0
0
0
0
0
0
0
0
0
0
0
0
0
0
0
0
0
0
14
6
0
106
47
0
127
56
0
158
118
87
196
196
196
196
196
196
224
224
224
255
255
255
255
255
255
250
250
250
83
83
83
0
0
0
0
0
0
0
0
0
0
0
0
0
0
0
128
128
128
253
253
253
252
252
252
250
250
250
160
160
160
132
132
132
144
144
144
187
187
187
184
184
184
185
185
185
235
235
235
34
34
34
2
2
2
0
0
0
0
0
0
0
0
0
98
145
239
98
145
239
98
145
239
73
133
254
216
229
254
253
253
254
245
248
254
151
185
254
98
145
239
102
152
254
205
222
254
232
239
254
155
188
254
98
145
239
98
145
239
98
145
239
98
145
239
98
145
239
98
145
239
0
0
0
0
0
0
0
0
0
0
0
0
0
0
0
0
0
0
0
0
0
0
0
0
0
0
0
1
0
0
79
35
0
128
57
0
140
81
34
189
180
173
196
196
196
208
208
208
248
248
248
255
255
255
254
254
254
115
115
115
0
0
0
0
0
0
0
0
0
0
0
0
29
29
29
253
253
253
251
251
251
253
253
253
187
187
187
133
133
133
133
133
133
189
189
189
184
184
184
184
184
184
202
202
202
93
93
93
0
0
0
0
0
0
0
0
0
0
0
0
98
145
239
98
145
239
98
145
239
98
145
239
147
182
255
255
255
255
255
255
255
255
255
255
225
235
254
113
160
254
216
229
254
255
255
255
255
255
255
253
253
254
117
162
255
98
145
239
98
145
239
98
145
239
98
145
239
98
145
239
0
0
0
0
0
0
0
0
0
0
0
0
0
0
0
0
0
0
0
0
0
0
0
0
0
0
0
0
0
0
51
23
0
127
56
0
129
59
3
171
145
124
197
197
197
198
198
198
230
230
230
255
255
255
255
255
255
128
128
128
0
0
0
0
0
0
0
0
0
98
145
239
190
190
190
253
253
253
250
250
250
253
253
253
148
148
148
132
132
132
162
162
162
184
184
184
184
184
184
185
185
185
180
180
180
17
17
17
0
0
0
0
0
0
0
0
0
0
0
0
98
145
239
98
145
239
98
145
239
98
145
239
203
220
255
229
229
230
232
232
233
255
255
255
246
248
254
210
224
254
255
255
255
255
255
255
255
255
255
250
251
254
159
190
254
98
145
239
98
145
239
98
145
239
98
145
239
98
145
239
6
13
23
0
0
0
0
0
0
0
0
0
0
0
0
0
0
0
0
0
0
0
0
0
0
0
0
0
0
0
23
10
0
115
50
0
128
57
0
152
107
71
195
193
192
195
195
195
206
206
206
238
238
238
254
254
254
105
105
105
0
0
0
0
0
0
98
145
239
98
145
239
209
216
229
253
253
253
253
253
253
162
162
162
135
135
135
135
135
135
212
212
212
184
184
184
184
184
184
188
188
188
103
103
103
14
14
14
0
0
0
0
0
0
0
0
0
98
145
239
98
145
239
98
145
239
98
145
239
55
121
255
189
197
214
77
80
86
100
104
113
234
234
234
255
255
255
180
181
185
190
193
198
255
255
255
255
255
255
255
255
255
176
202
254
98
145
239
98
145
239
98
145
239
98
145
239
98
145
239
98
145
239
0
0
0
0
0
0
0
0
0
0
0
0
0
0
0
0
0
0
0
0
0
0
0
0
0
0
0
5
2
0
92
39
0
128
57
0
135
72
22
185
172
163
196
196
196
199
199
199
196
196
196
150
150
150
32
32
32
0
0
0
0
0
0
98
145
239
98
145
239
189
210
253
253
253
253
241
241
241
151
151
151
127
127
127
148
148
148
184
184
184
184
184
184
184
184
184
180
180
180
42
42
42
0
0
0
0
0
0
0
0
0
0
0
0
98
145
239
98
145
239
98
145
239
98
145
239
58
123
255
182
190
204
40
40
41
60
66
77
188
201
226
186
193
208
27
28
30
44
46
51
215
216
216
255
255
255
255
255
255
158
190
255
98
145
239
98
145
239
98
145
239
98
145
239
98
145
239
98
145
239
0
0
0
0
0
0
0
0
0
0
0
0
0
0
0
0
0
0
0
0
0
0
0
0
0
0
0
0
0
0
62
27
0
127
56
0
128
57
1
165
134
111
144
144
144
96
96
96
43
43
43
7
7
7
0
0
0
0
0
0
0
0
0
98
145
239
48
116
251
253
253
253
252
252
253
182
182
182
132
132
133
134
134
134
220
220
220
184
184
184
184
184
184
253
253
253
171
171
171
11
11
11
0
0
0
0
0
0
0
0
0
0
1
2
98
145
239
98
145
239
98
145
239
98
145
239
60
123
249
124
167
254
66
112
206
40
98
216
45
114
255
68
125
241
31
59
114
109
109
109
239
239
239
255
255
255
252
253
255
110
158
255
98
145
239
98
145
239
98
145
239
98
145
239
98
145
239
98
145
239
0
0
0
0
0
0
0
0
0
0
0
0
0
0
0
0
0
0
0
0
0
0
0
0
0
0
0
0
0
0
32
14
0
120
52
0
128
57
0
100
52
13
12
9
7
0
0
0
0
0
0
0
0
0
0
0
0
0
0
0
0
0
0
98
145
239
98
145
239
202
219
253
253
253
253
157
157
158
130
132
135
162
162
163
184
184
184
184
184
184
184
184
184
253
253
253
175
175
175
11
11
11
0
0
0
0
0
0
0
0
0
98
145
239
98
145
239
98
145
239
98
145
239
98
145
239
98
145
239
98
145
239
98
145
239
46
100
228
76
102
195
87
103
183
56
116
244
161
190
248
251
252
255
255
255
255
205
221
254
50
117
254
98
145
239
98
145
239
98
145
239
98
145
239
98
145
239
98
145
239
0
0
0
0
0
0
0
0
0
0
0
0
0
0
0
0
0
0
0
0
0
0
0
0
0
0
0
0
0
0
8
3
0
98
43
0
128
57
0
114
51
0
25
11
0
0
0
0
0
0
0
0
0
0
0
0
0
0
0
0
0
0
0
25
27
35
125
154
214
253
253
253
177
177
178
135
135
135
134
146
170
238
239
241
184
184
184
184
184
184
237
237
237
237
237
237
89
89
89
6
6
6
12
5
0
103
46
0
136
61
0
144
69
14
152
103
101
153
107
111
143
106
122
133
106
132
143
106
121
165
108
98
190
109
70
216
111
42
236
112
19
247
113
8
156
107
107
55
107
229
119
164
255
208
224
254
115
161
254
98
145
239
98
145
239
98
145
239
98
145
239
98
145
239
98
145
239
98
145
239
0
0
0
0
0
0
0
0
0
0
0
0
0
0
0
0
0
0
0
0
0
0
0
0
0
0
0
0
0
0
0
0
0
68
30
0
128
57
0
127
56
0
58
26
0
0
0
0
0
0
0
0
0
0
0
0
0
0
0
0
0
0
0
104
104
104
240
242
246
223
223
223
144
144
144
135
135
135
159
171
194
184
184
184
184
184
184
184
184
184
253
253
253
179
179
179
54
54
54
0
0
0
43
19
0
203
90
0
255
114
0
255
114
0
255
114
0
255
114
0
255
114
0
255
114
0
255
114
0
255
114
0
255
114
0
255
114
0
255
114
0
255
114
0
255
114
0
148
107
116
22
99
255
55
121
254
98
145
239
98
145
239
98
145
239
98
145
239
98
145
239
98
145
239
98
145
239
98
145
239
0
0
0
0
0
0
0
0
0
0
0
0
0
0
0
0
0
0
0
0
0
0
0
0
0
0
0
0
0
0
0
0
0
38
16
0
123
54
0
128
57
0
91
40
0
6
2
0
0
0
0
0
0
0
0
0
0
0
0
0
0
0
0
193
193
193
253
253
253
172
172
172
130
133
140
138
140
145
184
184
184
184
184
184
184
184
184
253
253
253
220
220
220
96
96
96
0
0
0
0
0
0
0
0
0
60
26
0
144
64
0
217
106
28
249
113
5
255
114
0
255
114
0
255
114
0
255
114
0
255
114
0
255
114
0
255
114
0
255
114
0
255
114
0
255
114
0
236
112
19
83
102
188
98
145
239
98
145
239
98
145
239
98
145
239
98
145
239
98
145
239
98
145
239
98
145
239
98
145
239
0
0
0
0
0
0
0
0
0
0
0
0
0
0
0
0
0
0
0
0
0
0
0
0
0
0
0
0
0
0
0
0
0
12
5
0
104
45
0
128
57
0
118
52
0
29
14
5
98
145
239
98
145
239
98
145
239
98
145
239
98
145
239
251
251
251
171
171
171
129
131
134
125
132
147
197
197
197
184
184
184
184
184
184
252
252
253
253
253
253
128
138
157
24
24
24
0
0
0
0
0
0
0
0
0
0
0
0
98
145
239
47
80
170
100
104
168
146
106
118
183
109
77
217
111
40
231
112
25
244
113
11
255
114
0
255
114
0
255
114
0
255
114
0
255
114
0
255
114
0
128
105
138
98
145
239
98
145
239
98
145
239
98
145
239
98
145
239
98
145
239
98
145
239
98
145
239
98
145
239
6
12
21
0
0
0
0
0
0
0
0
0
0
0
0
0
0
0
0
0
0
0
0
0
0
0
0
0
0
0
0
0
0
1
0
0
74
33
0
120
59
18
88
72
93
35
72
162
98
145
239
98
145
239
98
145
239
98
145
239
98
145
239
184
184
184
131
131
131
131
131
132
156
163
180
184
184
184
184
184
184
184
184
184
253
253
253
215
228
253
88
124
196
98
145
239
0
0
0
0
0
0
0
0
0
0
0
0
98
145
239
98
145
239
98
145
239
98
145
239
98
145
239
46
100
228
56
101
216
109
118
183
206
112
55
255
114
0
255
114
0
255
114
0
255
114
0
199
110
61
115
129
196
98
145
239
98
145
239
98
145
239
98
145
239
98
145
239
98
145
239
98
145
239
98
145
239
98
145
239
6
12
22
0
0
0
0
0
0
0
0
0
0
0
0
0
0
0
0
0
0
0
0
0
0
0
0
0
0
0
0
0
0
1
1
1
32
27
36
53
83
168
98
145
239
98
145
239
98
145
239
98
145
239
98
145
239
98
145
239
98
145
239
143
143
143
133
133
133
143
143
143
184
184
184
184
184
184
184
184
184
253
253
253
253
253
253
186
208
253
67
127
247
98
145
239
0
0
0
0
0
0
0
0
0
0
0
0
98
145
239
98
145
239
98
145
239
98
145
239
98
145
239
98
145
239
98
145
239
152
182
244
224
142
86
252
121
15
251
123
19
251
122
17
246
115
12
205
167
156
193
211
249
54
119
251
98
145
239
98
145
239
98
145
239
98
145
239
98
145
239
98
145
239
98
145
239
98
145
239
6
12
22
0
0
0
0
0
0
0
0
0
0
0
0
0
0
0
0
0
0
0
0
0
0
0
0
0
0
0
0
0
0
98
145
239
98
145
239
98
145
239
98
145
239
98
145
239
98
145
239
98
145
239
98
145
239
98
145
239
98
145
239
127
127
127
139
139
139
214
214
214
184
184
184
184
184
184
253
253
253
168
196
253
158
190
253
99
150
254
98
145
239
98
145
239
98
145
239
0
0
0
0
0
0
0
0
0
98
145
239
98
145
239
98
145
239
98
145
239
98
145
239
98
145
239
76
134
252
218
226
244
225
154
107
247
134
43
245
139
52
248
132
38
213
134
86
213
219
238
241
243
247
93
146
252
98
145
239
98
145
239
98
145
239
98
145
239
98
145
239
98
145
239
98
145
239
98
145
239
6
12
24
0
0
0
0
0
0
0
0
0
0
0
0
0
0
0
0
0
0
0
0
0
0
0
0
98
145
239
98
145
239
98
145
239
98
145
239
54
85
174
69
79
139
46
88
194
31
95
231
98
145
239
98
145
239
98
145
239
0
0
0
129
129
129
214
214
214
254
254
254
184
184
184
184
184
184
253
253
253
174
200
253
98
145
239
98
145
239
98
145
239
98
145
239
98
145
239
98
145
239
0
0
0
98
145
239
98
145
239
98
145
239
98
145
239
98
145
239
98
145
239
98
145
239
140
176
248
241
241
242
230
161
112
247
134
43
245
138
52
242
132
45
213
176
161
245
245
245
245
245
245
141
176
249
98
145
239
98
145
239
98
145
239
98
145
239
98
145
239
98
145
239
98
145
239
98
145
239
98
145
239
0
0
0
0
0
0
0
0
0
0
0
0
0
0
0
0
0
0
0
0
0
98
145
239
98
145
239
98
145
239
98
145
239
98
145
239
55
85
174
124
58
9
121
59
14
87
72
96
98
145
239
98
145
239
0
0
0
0
0
0
234
234
234
245
245
245
252
252
252
184
184
184
184
184
184
253
253
253
79
137
254
98
145
239
98
145
239
98
145
239
98
145
239
98
145
239
98
145
239
0
0
0
98
145
239
98
145
239
98
145
239
98
145
239
98
145
239
98
145
239
46
114
253
202
216
244
237
239
243
217
157
122
249
128
29
248
130
34
218
136
82
218
215
223
243
243
243
243
243
243
184
205
246
98
145
239
98
145
239
98
145
239
98
145
239
98
145
239
98
145
239
98
145
239
98
145
239
98
145
239
0
0
0
0
0
0
0
0
0
0
0
0
0
0
0
98
145
239
98
145
239
98
145
239
98
145
239
98
145
239
98
145
239
98
145
239
31
94
231
106
65
52
128
57
0
115
56
17
26
34
64
0
0
0
0
0
0
0
0
0
252
252
252
212
212
212
250
250
250
184
184
184
184
184
184
172
183
204
98
145
239
98
145
239
98
145
239
98
145
239
98
145
239
98
145
239
98
145
239
98
145
239
98
145
239
98
145
239
98
145
239
98
145
239
98
145
239
98
145
239
105
152
249
238
239
241
239
239
241
202
162
148
251
119
13
250
120
16
208
167
150
239
240
242
242
242
242
242
242
242
213
223
244
52
118
253
98
145
239
98
145
239
98
145
239
98
145
239
98
145
239
98
145
239
98
145
239
98
145
239
0
0
0
0
0
0
0
0
0
0
0
0
98
145
239
98
145
239
98
145
239
98
145
239
98
145
239
98
145
239
98
145
239
98
145
239
98
145
239
78
76
117
128
57
0
126
55
0
50
22
0
0
0
0
0
0
0
0
0
0
178
178
178
25
25
25
241
241
241
199
199
199
240
240
240
58
61
67
98
145
239
98
145
239
98
145
239
98
145
239
98
145
239
98
145
239
98
145
239
98
145
239
98
145
239
98
145
239
98
145
239
98
145
239
98
145
239
98
145
239
170
194
244
239
239
239
239
239
239
184
184
208
168
109
96
181
130
117
201
209
233
244
244
244
243
243
243
242
242
242
234
236
241
89
142
250
98
145
239
98
145
239
98
145
239
98
145
239
98
145
239
98
145
239
98
145
239
98
145
239
0
0
0
0
0
0
0
0
0
98
145
239
98
145
239
98
145
239
98
145
239
98
145
239
98
145
239
98
145
239
98
145
239
98
145
239
98
145
239
48
73
148
121
58
10
128
57
0
81
36
0
2
1
0
0
0
0
0
0
0
0
0
0
219
219
219
241
241
241
215
215
215
109
109
109
9
9
9
98
145
239
98
145
239
98
145
239
98
145
239
98
145
239
98
145
239
98
145
239
98
145
239
98
145
239
98
145
239
98
145
239
98
145
239
98
145
239
87
141
249
225
229
238
241
241
241
238
238
238
228
231
238
168
188
234
182
201
240
246
246
246
254
254
254
253
253
253
251
251
251
244
244
244
131
169
247
98
145
239
98
145
239
98
145
239
98
145
239
98
145
239
98
145
239
98
145
239
98
145
239
0
0
0
98
145
239
98
145
239
98
145
239
98
145
239
98
145
239
98
145
239
98
145
239
98
145
239
98
145
239
98
145
239
98
145
239
98
145
239
14
28
61
97
43
0
128
57
0
108
47
0
15
6
0
0
0
0
0
0
0
0
0
0
72
72
72
96
96
96
61
61
61
15
15
15
0
0
0
0
0
0
98
145
239
98
145
239
98
145
239
98
145
239
98
145
239
98
145
239
98
145
239
98
145
239
98
145
239
98
145
239
98
145
239
98
145
239
163
190
244
245
245
245
250
250
250
238
238
238
236
236
236
236
236
236
237
237
237
248
248
248
255
255
255
255
255
255
254
254
254
246
246
246
177
199
242
98
145
239
98
145
239
98
145
239
98
145
239
98
145
239
98
145
239
98
145
239
98
145
239
98
145
239
98
145
239
98
145
239
98
145
239
98
145
239
98
145
239
98
145
239
98
145
239
98
145
239
98
145
239
98
145
239
98
145
239
98
145
239
0
0
0
62
27
0
127
56
0
124
54
0
41
18
0
0
0
0
0
0
0
0
0
0
0
0
0
1
1
1
0
0
0
0
0
0
0
0
0
0
0
0
98
145
239
98
145
239
98
145
239
98
145
239
98
145
239
98
145
239
98
145
239
98
145
239
98
145
239
98
145
239
98
145
239
109
156
251
244
246
248
255
255
255
251
251
251
236
236
236
235
235
235
235
235
235
236
236
236
250
250
250
255
255
255
255
255
255
255
255
255
249
249
249
221
228
242
63
125
252
98
145
239
98
145
239
98
145
239
98
145
239
98
145
239
98
145
239
98
145
239
98
145
239
98
145
239
98
145
239
98
145
239
98
145
239
98
145
239
98
145
239
98
145
239
98
145
239
98
145
239
98
145
239
98
145
239
0
0
0
0
0
0
28
12
0
117
51
0
128
57
0
70
31
0
0
0
0
0
0
0
0
0
0
0
0
0
0
0
0
0
0
0
0
0
0
0
0
0
0
0
0
0
0
0
98
145
239
98
145
239
98
145
239
98
145
239
98
145
239
98
145
239
98
145
239
98
145
239
98
145
239
72
132
254
202
219
254
255
255
255
255
255
255
251
251
251
235
235
235
233
233
233
233
233
233
235
235
235
251
251
251
255
255
255
255
255
255
255
255
255
254
254
254
245
246
247
102
151
249
98
145
239
98
145
239
98
145
239
98
145
239
98
145
239
98
145
239
98
145
239
98
145
239
98
145
239
98
145
239
98
145
239
98
145
239
98
145
239
98
145
239
98
145
239
98
145
239
98
145
239
0
0
0
0
0
0
0
0
0
0
0
0
5
2
0
88
38
0
128
57
0
98
42
0
8
3
0
0
0
0
0
0
0
0
0
0
0
0
0
0
0
0
0
0
0
0
0
0
0
0
0
0
0
0
0
0
1
98
145
239
98
145
239
98
145
239
98
145
239
98
145
239
98
145
239
98
145
239
82
135
243
174
200
254
255
255
255
255
255
255
255
255
255
254
254
254
241
241
241
232
232
232
232
232
232
240
240
240
253
253
253
255
255
255
255
255
255
255
255
255
255
255
255
252
252
252
145
179
249
98
145
239
98
145
239
98
145
239
98
145
239
98
145
239
98
145
239
98
145
239
98
145
239
98
145
239
98
145
239
98
145
239
98
145
239
98
145
239
98
145
239
98
145
239
98
145
239
98
145
239
0
0
0
0
0
0
0
0
0
0
0
0
0
0
0
52
23
0
127
56
0
116
51
0
26
11
0
0
0
0
0
0
0
0
0
0
0
0
0
0
0
0
0
0
0
0
0
0
0
0
0
0
0
0
0
0
0
98
145
239
98
145
239
98
145
239
98
145
239
98
145
239
98
145
239
98
145
239
133
173
254
254
254
255
255
255
255
255
255
255
255
255
255
255
255
255
253
253
253
246
246
246
246
246
246
252
252
252
255
255
255
255
255
255
255
255
255
255
255
255
255
255
255
255
255
255
198
216
251
90
140
240
98
145
239
98
145
239
98
145
239
98
145
239
98
145
239
98
145
239
98
145
239
98
145
239
98
145
239
98
145
239
98
145
239
98
145
239
98
145
239
98
145
239
0
0
0
2
2
3
0
0
0
0
0
0
0
0
0
0
0
0
0
0
0
19
9
1
65
28
0
46
20
0
4
2
0
0
0
0
0
0
0
0
0
0
0
0
0
0
0
0
0
0
0
0
0
0
0
0
0
0
0
0
0
0
0
0
0
0
98
145
239
98
145
239
98
145
239
98
145
239
98
145
239
94
147
255
229
237
254
255
255
255
255
255
255
255
255
255
255
255
255
255
255
255
255
255
255
255
255
255
255
255
255
255
255
255
255
255
255
255
255
255
255
255
255
255
255
255
255
255
255
255
255
255
254
254
254
136
175
255
98
145
239
98
145
239
98
145
239
98
145
239
98
145
239
98
145
239
98
145
239
98
145
239
98
145
239
98
145
239
98
145
239
98
145
239
0
0
0
0
0
0
0
0
0
3
3
3
0
0
0
0
0
0
0
0
0
0
0
0
0
0
0
2
2
2
1
1
0
0
0
0
0
0
0
0
0
0
0
0
0
0
0
0
0
0
0
0
0
0
0
0
0
0
0
0
0
0
0
0
0
0
0
0
0
0
0
0
0
0
0
98
145
239
98
145
239
98
145
239
58
123
255
192
212
255
255
255
255
255
255
255
255
255
255
255
255
255
255
255
255
255
255
255
255
255
255
255
255
255
255
255
255
255
255
255
255
255
255
255
255
255
255
255
255
255
255
255
255
255
255
255
255
255
255
255
255
233
240
255
69
131
255
98
145
239
98
145
239
98
145
239
98
145
239
98
145
239
98
145
239
98
145
239
98
145
239
98
145
239
98
145
239
0
0
0
0
0
0
0
0
0
0
0
0
2
2
2
0
0
0
0
0
0
0
0
0
0
0
0
0
0
0
1
1
1
0
0
0
0
0
0
0
0
0
0
0
0
0
0
0
0
0
0
0
0
0
0
0
0
0
0
0
0
0
0
0
0
0
0
0
0
0
0
0
0
0
0
0
0
0
98
145
239
98
145
239
98
145
239
155
188
255
255
255
255
255
255
255
255
255
255
255
255
255
255
255
255
255
255
255
255
255
255
255
255
255
255
255
255
255
255
255
255
255
255
255
255
255
255
255
255
255
255
255
255
255
255
255
255
255
255
255
255
255
255
255
254
254
255
124
167
255
98
145
239
98
145
239
98
145
239
98
145
239
98
145
239
98
145
239
98
145
239
98
145
239
0
0
2
0
0
0
0
0
0
0
0
0
0
0
0
0
0
0
0
0
0
0
0
0
0
0
0
0
0
0
0
0
0
0
0
0
0
0
0
0
0
0
0
0
0
0
0
0
0
0
0
0
0
0
0
0
0
0
0
0
0
0
0
0
0
0
0
0
0
0
0
0
0
0
0
0
0
0
0
0
0
0
0
0
98
145
239
98
145
239
119
164
255
250
251
255
255
255
255
255
255
255
255
255
255
255
255
255
255
255
255
255
255
255
255
255
255
255
255
255
255
255
255
255
255
255
255
255
255
255
255
255
255
255
255
255
255
255
255
255
255
255
255
255
255
255
255
255
255
255
255
255
255
180
204
255
98
145
239
98
145
239
98
145
239
98
145
239
98
145
239
98
145
239
98
145
239
0
0
0
0
0
0
0
0
0
0
0
0
0
0
0
0
0
0
0
0
0
0
0
0
0
0
0
0
0
0
0
0
0
0
0
0
0
0
0
0
0
0
0
0
0
0
0
0
0
0
0
0
0
0
0
0
0
0
0
0
0
0
0
0
0
0
0
0
0
0
0
0
0
0
0
0
0
0
0
0
0
0
0
0
0
0
0
98
145
239
81
137
251
216
229
255
255
255
255
255
255
255
255
255
255
255
255
255
255
255
255
255
255
255
255
255
255
255
255
255
255
255
255
255
255
255
255
255
255
255
255
255
255
255
255
255
255
255
255
255
255
255
255
255
255
255
255
255
255
255
255
255
255
255
255
255
228
237
255
60
124
255
98
145
239
98
145
239
98
145
239
98
145
239
0
0
1
0
0
0
0
0
0
0
0
0
0
0
0
0
0
0
0
0
0
0
0
0
0
0
0
2
2
2
0
0
0
0
0
0
0
0
0
0
0
0
0
0
0
1
1
1
0
0
0
0
0
0
0
0
0
0
0
0
0
0
0
0
0
0
0
0
0
0
0
0
0
0
0
0
0
0
0
0
0
0
0
0
0
0
0
0
0
0
0
0
0
35
70
143
180
204
255
255
255
255
255
255
255
255
255
255
255
255
255
255
255
255
255
255
255
255
255
255
255
255
255
255
255
255
255
255
255
255
255
255
255
255
255
255
255
255
255
255
255
255
255
255
255
255
255
255
255
255
255
255
255
255
255
255
255
255
255
255
255
255
252
253
255
114
160
255
98
145
239
98
145
239
98
145
239
98
145
239
0
1
4
0
0
0
0
0
0
0
0
0
0
0
0
0
0
0
0
0
0
0
0
0
0
0
0
3
3
3
0
0
0
0
0
0
0
0
0
0
0
0
0
0
0
2
2
2
0
0
0
0
0
0
0
0
0
0
0
0
0
0
0
0
0
0
0
0
0
0
0
0
0
0
0
0
0
0
0
0
0
0
0
0
0
0
0
0
0
0
1
6
15
137
156
195
254
254
255
255
255
255
255
255
255
255
255
255
255
255
255
255
255
255
255
255
255
255
255
255
255
255
255
255
255
255
255
255
255
255
255
255
255
255
255
255
255
255
255
255
255
255
255
255
255
255
255
255
255
255
255
255
255
255
255
255
255
255
255
255
255
255
255
255
255
168
197
255
98
145
239
98
145
239
98
145
239
98
145
239
0
1
4
0
0
0
0
0
0
0
0
0
0
0
0
0
0
0
0
0
0
0
0
0
0
0
0
1
1
1
0
0
0
0
0
0
0
0
0
0
0
0
0
0
0
1
1
1
0
0
0
0
0
0
0
0
0
0
0
0
0
0
0
0
0
0
0
0
0
0
0
0
0
0
0
0
0
0
0
0
0
0
0
0
0
0
0
0
0
0
44
44
45
225
227
230
255
255
255
255
255
255
255
255
255
255
255
255
255
255
255
255
255
255
255
255
255
255
255
255
255
255
255
255
255
255
255
255
255
255
255
255
255
255
255
255
255
255
255
255
255
255
255
255
255
255
255
255
255
255
255
255
255
255
255
255
255
255
255
255
255
255
255
255
255
220
231
255
52
119
255
98
145
239
98
145
239
98
145
239
98
145
239
0
0
0
0
0
0
0
0
0
0
0
0
0
0
0
0
0
0
0
0
0
0
0
0
1
1
1
0
0
0
0
0
0
0
0
0
0
0
0
0
0
0
1
1
1
0
0
0
0
0
0
0
0
0
0
0
0
0
0
0
0
0
0
0
0
0
0
0
0
0
0
0
0
0
0
0
0
0
0
0
0
0
0
0
0
0
0
90
90
90
251
251
251
255
255
255
255
255
255
255
255
255
255
255
255
255
255
255
255
255
255
255
255
255
255
255
255
255
255
255
255
255
255
255
255
255
255
255
255
255
255
255
255
255
255
255
255
255
255
255
255
255
255
255
255
255
255
255
255
255
255
255
255
255
255
255
255
255
255
255
255
255
250
251
255
103
153
255
98
145
239
98
145
239
98
145
239
98
145
239
0
0
0
0
0
0
0
0
0
0
0
0
0
0
0
0
0
0
0
0
0
0
0
0
1
1
1
0
0
0
0
0
0
0
0
0
0
0
0
0
0
0
1
1
1
0
0
0
0
0
0
0
0
0
0
0
0
0
0
0
0
0
0
0
0
0
0
0
0
0
0
0
0
0
0
0
0
0
0
0
0
0
0
0
0
0
0
139
139
139
255
255
255
255
255
255
255
255
255
255
255
255
255
255
255
255
255
255
255
255
255
255
255
255
255
255
255
255
255
255
255
255
255
255
255
255
255
255
255
255
255
255
255
255
255
255
255
255
255
255
255
255
255
255
255
255
255
255
255
255
255
255
255
255
255
255
255
255
255
255
255
255
255
255
255
158
190
255
98
145
239
98
145
239
98
145
239
98
145
239
0
0
0
0
0
0
0
0
0
0
0
0
0
0
0
0
0
0
0
0
0
0
0
0
1
1
1
0
0
0
0
0
0
0
0
0
0
0
0
0
0
0
1
1
1
0
0
0
0
0
0
0
0
0
0
0
0
0
0
0
0
0
0
0
0
0
0
0
0
0
0
0
0
0
0
0
0
0
0
0
0
0
0
0
14
14
14
192
192
192
255
255
255
255
255
255
255
255
255
255
255
255
255
255
255
255
255
255
255
255
255
255
255
255
255
255
255
255
255
255
255
255
255
255
255
255
255
255
255
255
255
255
255
255
255
255
255
255
255
255
255
255
255
255
255
255
255
255
255
255
255
255
255
255
255
255
255
255
255
255
255
255
255
255
255
218
230
255
56
122
255
98
145
239
98
145
239
98
145
239
0
0
0
0
0
0
0
0
0
0
0
0
0
0
0
0
0
0
0
0
0
0
0
0
1
1
1
0
0
0
0
0
0
0
0
0
0
0
0
0
0
0
1
1
1
0
0
0
0
0
0
0
0
0
0
0
0
0
0
0
0
0
0
0
0
0
0
0
0
0
0
0
0
0
0
0
0
0
0
0
0
0
0
0
45
45
45
231
231
231
255
255
255
255
255
255
255
255
255
255
255
255
255
255
255
255
255
255
255
255
255
255
255
255
255
255
255
255
255
255
255
255
255
255
255
255
255
255
255
255
255
255
255
255
255
255
255
255
255
255
255
255
255
255
255
255
255
255
255
255
255
255
255
255
255
255
255
255
255
255
255
255
255
255
255
254
254
255
126
169
255
98
145
239
98
145
239
98
145
239
0
0
0
0
0
0
0
0
0
0
0
0
0
0
0
0
0
0
0
0
0
0
0
0
1
1
1
0
0
0
0
0
0
0
0
0
0
0
0
0
0
0
1
1
1
0
0
0
0
0
0
0
0
0
0
0
0
0
0
0
0
0
0
0
0
0
0
0
0
0
0
0
0
0
0
0
0
0
0
0
0
0
0
0
91
91
91
249
249
249
255
255
255
255
255
255
255
255
255
255
255
255
255
255
255
255
255
255
255
255
255
255
255
255
255
255
255
255
255
255
255
255
255
255
255
255
255
255
255
255
255
255
255
255
255
255
255
255
255
255
255
255
255
255
255
255
255
255
255
255
255
255
255
255
255
255
255
255
255
255
255
255
255
255
255
255
255
255
197
216
255
74
131
245
98
145
239
98
145
239
0
0
0
0
0
0
0
0
0
0
0
0
0
0
0
0
0
0
0
0
0
0
0
0
0
0
0
0
0
0
0
0
0
0
0
0
0
0
0
0
0
0
1
1
1
0
0
0
0
0
0
0
0
0
0
0
0
0
0
0
0
0
0
0
0
0
0
0
0
0
0
0
0
0
0
0
0
0
0
0
0
0
0
0
141
141
141
255
255
255
255
255
255
255
255
255
255
255
255
255
255
255
255
255
255
255
255
255
255
255
255
255
255
255
255
255
255
255
255
255
255
255
255
255
255
255
255
255
255
255
255
255
255
255
255
255
255
255
255
255
255
255
255
255
255
255
255
255
255
255
255
255
255
255
255
255
255
255
255
255
255
255
255
255
255
255
255
255
249
251
255
105
154
255
98
145
239
98
145
239
0
0
0
0
0
0
0
0
0
0
0
0
0
0
0
0
0
0
0
0
0
0
0
0
0
0
0
0
0
0
0
0
0
0
0
0
0
0
0
0
0
0
1
1
1
0
0
0
0
0
0
0
0
0
0
0
0
0
0
0
0
0
0
0
0
0
0
0
0
0
0
0
0
0
0
0
0
0
0
0
0
13
13
13
189
189
189
255
255
255
255
255
255
255
255
255
255
255
255
255
255
255
255
255
255
255
255
255
255
255
255
255
255
255
255
255
255
255
255
255
255
255
255
255
255
255
255
255
255
255
255
255
255
255
255
255
255
255
255
255
255
255
255
255
255
255
255
255
255
255
255
255
255
255
255
255
255
255
255
255
255
255
255
255
255
255
255
255
255
255
255
168
196
255
98
145
239
98
145
239
0
0
0
0
0
0
0
0
0
0
0
0
0
0
0
0
0
0
0
0
0
0
0
0
0
0
0
0
0
0
0
0
0
0
0
0
0
0
0
1
1
1
0
0
0
0
0
0
0
0
0
0
0
0
0
0
0
0
0
0
0
0
0
0
0
0
0
0
0
0
0
0
0
0
0
0
0
0
0
0
0
40
40
40
228
228
228
255
255
255
255
255
255
255
255
255
255
255
255
255
255
255
255
255
255
255
255
255
255
255
255
255
255
255
255
255
255
255
255
255
255
255
255
255
255
255
255
255
255
255
255
255
255
255
255
255
255
255
255
255
255
255
255
255
255
255
255
255
255
255
255
255
255
255
255
255
255
255
255
255
255
255
255
255
255
255
255
255
255
255
255
215
228
255
44
110
245
98
145
239
0
0
0
0
0
0
0
0
0
0
0
0
0
0
0
0
0
0
0
0
0
0
0
0
0
0
0
0
0
0
0
0
0
0
0
0
0
0
0
2
2
2
0
0
0
0
0
0
0
0
0
0
0
0
0
0
0
0
0
0
0
0
0
0
0
0
0
0
0
0
0
0
0
0
0
0
0
0
0
0
0
84
84
84
249
249
249
255
255
255
255
255
255
255
255
255
255
255
255
255
255
255
255
255
255
255
255
255
255
255
255
255
255
255
255
255
255
255
255
255
254
254
255
255
255
255
255
255
255
255
255
255
255
255
255
255
255
255
255
255
255
255
255
255
255
255
255
255
255
255
255
255
255
255
255
255
255
255
255
255
255
255
255
255
255
255
255
255
255
255
255
243
247
255
80
137
249
98
145
239
0
0
0
0
0
0
0
0
0
0
0
0
0
0
0
0
0
0
0
0
0
0
0
0
0
0
0
0
0
0
0
0
0
0
0
0
0
0
0
1
1
1
0
0
0
0
0
0
0
0
0
0
0
0
0
0
0
0
0
0
0
0
0
0
0
0
0
0
0
0
0
0
0
0
0
0
0
0
37
19
4
151
113
83
253
213
181
253
230
211
255
255
255
255
255
255
255
255
255
255
255
255
255
255
255
255
255
255
255
255
255
255
255
255
255
255
255
255
255
255
254
254
255
254
254
255
255
255
255
255
255
255
255
255
255
255
255
255
255
255
255
255
255
255
255
255
255
255
255
255
255
255
255
255
255
255
255
255
255
255
255
255
255
255
255
255
255
255
255
255
255
254
254
255
124
166
251
98
145
239
0
0
0
0
0
0
0
0
0
0
0
0
0
0
0
0
0
0
0
0
0
0
0
0
0
0
0
0
0
0
0
0
0
0
0
0
0
0
0
1
1
1
0
0
0
0
0
0
0
0
0
0
0
0
0
0
0
0
0
0
0
0
0
0
0
0
0
0
0
0
0
0
41
20
4
131
66
14
211
108
25
244
128
32
249
131
37
249
144
59
252
194
147
254
253
252
255
255
255
255
255
255
255
255
255
255
255
255
255
255
255
255
255
255
255
255
255
255
255
255
255
255
255
251
252
255
250
251
255
254
254
255
255
255
255
255
255
255
255
255
255
255
255
255
255
255
255
255
255
255
255
255
255
255
255
255
255
255
255
255
255
255
255
255
255
255
255
255
255
255
255
255
255
255
149
183
254
98
145
239
0
0
0
0
0
0
0
0
0
0
0
0
0
0
0
0
0
0
0
0
0
0
0
0
0
0
0
0
0
0
0
0
0
0
0
0
1
1
1
1
1
1
0
0
0
0
0
0
0
0
0
0
0
0
0
0
0
0
0
0
0
0
0
0
0
0
0
0
0
78
38
5
186
94
19
249
129
32
248
132
38
247
134
42
247
134
42
248
132
39
249
132
37
252
201
160
255
255
255
255
255
255
255
255
255
255
255
255
255
255
255
255
255
255
255
255
255
255
255
255
255
255
255
255
255
255
252
253
255
254
254
255
254
254
255
255
255
255
255
255
255
255
255
255
255
255
255
255
255
255
255
255
255
255
255
255
255
255
255
255
255
255
255
255
255
255
255
255
255
255
255
255
255
255
156
188
254
98
145
239
0
0
0
0
0
0
0
0
0
0
0
0
0
0
0
0
0
0
0
0
0
0
0
0
0
0
0
0
0
0
0
0
0
0
0
0
0
0
0
0
0
0
0
0
0
0
0
0
0
0
0
0
0
0
0
0
0
0
0
0
0
0
0
0
0
0
70
32
1
210
102
13
249
127
29
248
132
37
247
135
45
246
138
51
246
138
51
246
136
47
248
133
40
250
155
78
254
238
225
255
255
255
255
255
255
255
255
255
255
255
255
255
255
255
255
255
255
255
255
255
255
255
255
255
255
255
255
255
255
255
255
255
255
255
255
255
255
255
255
255
255
255
255
255
255
255
255
255
255
255
255
255
255
255
255
255
255
255
255
255
255
255
255
255
255
255
255
255
255
255
255
255
255
255
161
192
255
98
145
239
0
0
0
0
0
0
0
0
0
0
0
0
0
0
0
0
0
0
0
0
0
0
0
0
0
0
0
0
0
0
0
0
0
0
0
0
0
0
0
0
0
0
0
0
0
0
0
0
0
0
0
0
0
0
0
0
0
0
0
0
0
0
0
13
5
0
170
76
1
251
122
19
249
129
31
247
133
40
246
137
49
245
141
57
244
142
59
246
138
52
247
134
43
245
136
47
195
170
148
214
214
214
241
241
241
254
254
254
255
255
255
255
255
255
255
255
255
255
255
255
255
255
255
255
255
255
255
255
255
255
255
255
255
255
255
255
255
255
255
255
255
255
255
255
255
255
255
255
255
255
255
255
255
255
255
255
255
255
255
255
255
255
255
255
255
255
255
255
255
255
255
255
255
255
151
185
254
98
145
239
0
0
0
0
0
0
0
0
0
0
0
0
0
0
0
0
0
0
0
0
0
0
0
0
0
0
0
0
0
0
0
0
0
0
0
0
0
0
0
0
0
0
0
0
0
0
0
0
0
0
0
0
0
0
0
0
0
0
0
0
0
0
0
21
9
0
179
80
1
238
116
17
249
129
31
247
133
40
246
137
49
245
141
57
244
142
59
246
138
52
247
134
43
224
117
31
48
28
12
26
26
26
65
65
65
111
111
111
158
158
158
203
203
203
235
235
235
253
253
253
255
255
255
255
255
255
255
255
255
255
255
255
255
255
255
255
255
255
255
255
255
255
255
255
255
255
255
255
255
255
255
255
255
255
255
255
255
255
255
255
255
255
255
255
255
255
255
255
255
255
255
254
254
255
120
165
254
98
145
239
0
0
0
0
0
0
0
0
0
0
0
0
0
0
0
0
0
0
0
0
0
0
0
0
0
0
0
0
0
0
0
0
0
0
0
0
0
0
0
0
0
0
0
0
0
0
0
0
0
0
0
0
0
0
0
0
0
0
0
0
0
0
0
0
0
0
34
15
0
175
85
12
249
127
29
248
131
37
247
135
44
246
138
50
246
138
51
246
136
46
248
132
39
168
86
22
12
6
1
0
0
0
0
0
0
0
0
0
3
3
3
18
18
18
51
51
51
96
96
96
142
142
142
190
190
190
225
225
225
248
248
248
255
255
255
255
255
255
255
255
255
255
255
255
255
255
255
255
255
255
255
255
255
255
255
255
255
255
255
255
255
255
255
255
255
255
255
255
255
255
255
245
248
254
87
141
252
98
145
239
7
11
19
0
0
0
0
0
0
0
0
0
0
0
0
0
0
0
0
0
0
0
0
0
0
0
0
0
0
0
0
0
0
0
0
0
0
0
0
0
0
0
0
0
0
0
0
0
0
0
0
0
0
0
0
0
0
0
0
0
0
0
0
0
0
0
12
5
0
176
82
7
248
123
22
235
122
29
248
132
37
247
133
41
247
134
42
248
132
39
188
98
26
68
35
8
7
3
0
0
0
0
0
0
0
0
0
0
0
0
0
0
0
0
0
0
0
0
0
0
0
0
0
12
12
12
38
38
38
79
79
79
127
127
127
176
176
176
217
217
217
243
243
243
255
255
255
255
255
255
255
255
255
255
255
255
255
255
255
255
255
255
254
249
245
253
212
178
253
187
133
235
174
133
122
118
167
30
69
160
6
12
24
0
0
0
0
0
0
0
0
0
0
0
0
0
0
0
0
0
0
0
0
0
0
0
0
0
0
0
0
0
0
0
0
0
0
0
0
0
0
0
0
0
0
0
0
0
0
0
0
0
0
0
0
0
0
0
0
0
0
0
0
0
0
0
0
0
0
60
27
0
90
43
6
180
89
17
249
128
29
249
129
32
249
129
33
197
101
25
91
46
10
26
12
1
20
9
0
0
0
0
0
0
0
0
0
0
0
0
0
0
0
0
0
0
0
0
0
0
0
0
0
0
0
0
0
0
0
0
0
0
0
0
0
6
6
6
28
28
28
63
63
63
110
110
110
161
161
161
204
204
204
236
236
236
251
251
251
254
243
233
252
175
112
250
129
30
250
126
26
250
126
26
248
123
24
158
90
48
28
13
1
0
0
0
0
0
0
0
0
0
0
0
0
0
0
0
0
0
0
0
0
0
0
0
0
0
0
0
0
0
0
0
0
0
0
0
0
0
0
0
0
0
0
0
0
0
0
0
0
0
0
0
0
0
0
0
0
0
0
0
0
0
0
0
0
0
0
0
0
0
20
9
0
198
93
6
251
121
16
235
116
20
163
81
16
95
47
8
36
17
2
1
0
0
0
0
0
0
0
0
0
0
0
0
0
0
0
0
0
0
0
0
0
0
0
0
0
0
0
0
0
0
0
0
0
0
0
0
0
0
0
0
0
0
0
0
0
0
0
0
0
0
0
0
0
3
3
3
18
18
18
50
50
50
94
94
94
207
144
94
250
125
24
248
130
34
248
133
40
248
132
39
249
129
32
250
124
22
131
63
7
0
0
0
2
1
0
0
0
0
0
0
0
0
0
0
0
0
0
0
0
0
0
0
0
0
0
0
0
0
0
0
0
0
0
0
0
0
0
0
0
0
0
0
0
0
0
0
0
0
0
0
0
0
0
0
0
0
0
0
0
0
0
0
0
0
0
0
0
0
0
0
0
91
41
0
117
53
1
68
31
2
7
3
0
10
5
0
4
2
0
0
0
0
0
0
0
0
0
0
0
0
0
0
0
0
0
0
0
0
0
0
0
0
0
0
0
0
0
0
0
0
0
0
0
0
0
0
0
0
0
0
0
0
0
0
0
0
0
0
0
0
0
0
0
0
0
0
0
0
0
0
0
0
18
8
1
195
96
15
249
128
31
247
134
43
246
138
52
246
138
50
247
133
40
249
127
28
208
100
14
33
15
1
9
4
0
0
0
0
0
0
0
0
0
0
0
0
0
0
0
0
0
0
0
0
0
0
0
0
0
0
0
0
0
0
0
0
0
0
0
0
0
0
0
0
0
0
0
0
0
0
0
0
0
0
0
0
0
0
0
0
0
0
0
0
0
0
0
0
0
0
0
0
0
0
0
0
0
0
0
0
0
0
0
0
0
0
0
0
0
0
0
0
0
0
0
0
0
0
0
0
0
0
0
0
0
0
0
0
0
0
0
0
0
0
0
0
0
0
0
0
0
0
0
0
0
0
0
0
0
0
0
0
0
0
0
0
0
0
0
0
0
0
0
0
0
0
0
0
0
0
0
0
46
22
2
229
113
17
249
129
33
246
136
46
245
141
57
245
140
55
247
134
43
249
128
30
222
107
14
37
17
1
1
0
0
0
0
0
0
0
0
0
0
0
0
0
0
0
0
0
0
0
0
0
0
0
0
0
0
0
0
0
0
0
0
0
0
0
0
0
0
0
0
0
0
0
0
0
0
0
0
0
0
0
0
0
0
0
0
0
0
0
0
0
0
0
0
0
0
0
0
0
0
0
0
0
0
0
0
0
0
0
0
0
0
0
0
0
0
0
0
0
0
0
0
0
0
0
0
0
0
0
0
0
0
0
0
0
0
0
0
0
0
0
0
0
0
0
0
0
0
0
0
0
0
0
0
0
0
0
0
0
0
0
0
0
0
0
0
0
0
0
0
0
0
0
0
0
0
0
0
0
60
28
2
239
115
15
249
128
29
247
133
40
246
137
48
246
136
47
248
132
38
250
126
27
240
114
13
60
28
1
3
1
0
0
0
0
0
0
0
0
0
0
0
0
0
0
0
0
0
0
0
0
0
0
0
0
0
0
0
0
0
0
0
0
0
0
0
0
0
0
0
0
0
0
0
0
0
0
0
0
0
0
0
0
0
0
0
0
0
0
0
0
0
0
0
0
0
0
0
0
0
0
0
0
0
0
0
0
0
0
0
0
0
0
0
0
0
0
0
0
0
0
0
0
0
0
0
0
0
0
0
0
0
0
0
0
0
0
0
0
0
0
0
0
0
0
0
0
0
0
0
0
0
0
0
0
0
0
0
0
0
0
0
0
0
0
0
0
0
0
0
0
0
0
0
0
0
0
0
0
61
28
1
240
113
10
250
124
22
249
128
31
248
131
36
248
130
35
249
127
29
251
123
20
241
113
8
67
30
0
7
3
0
0
0
0
0
0
0
0
0
0
0
0
0
0
0
0
0
0
0
0
0
0
0
0
0
0
0
0
0
0
0
0
0
0
0
0
0
0
0
0
0
0
0
0
0
0
0
0
0
0
0
0
0
0
0
0
0
0
0
0
0
0
0
0
0
0
0
0
0
0
0
0
0
0
0
0
0
0
0
0
0
0
0
0
0
0
0
0
0
0
0
0
0
0
0
0
0
0
0
0
0
0
0
0
0
0
0
0
0
0
0
0
0
0
0
0
0
0
0
0
0
0
0
0
0
0
0
0
0
0
0
0
0
0
0
0
0
0
0
0
0
0
0
0
0
0
0
0
49
22
0
234
106
4
252
119
12
251
123
19
250
124
23
250
124
22
246
119
17
252
118
10
231
104
2
46
20
0
0
0
0
0
0
0
0
0
0
0
0
0
0
0
0
0
0
0
0
0
0
0
0
0
0
0
0
0
0
0
0
0
0
0
0
0
0
0
0
0
0
0
0
0
0
0
0
0
0
0
0
0
0
0
0
0
0
0
0
0
0
0
0
0
0
0
0
0
0
0
0
0
0
0
0
0
0
0
0
0
0
0
0
0
0
0
0
0
0
0
0
0
0
0
0
0
0
0
0
0
0
0
0
0
0
0
0
0
0
0
0
0
0
0
0
0
0
0
0
0
0
0
0
0
0
0
0
0
0
0
0
0
0
0
0
0
0
0
0
0
0
0
0
0
0
0
0
0
0
0
14
6
0
179
80
0
254
115
2
211
98
6
253
118
9
232
109
7
189
87
4
254
114
2
193
86
0
20
9
0
0
0
0
0
0
0
0
0
0
0
0
0
0
0
0
0
0
0
0
0
0
0
0
0
0
0
0
0
0
0
0
0
0
0
0
0
0
0
0
0
0
0
0
0
0
0
0
0
0
0
0
0
0
0
0
0
0
0
0
0
0
0
0
0
0
0
0
0
0
0
0
0
0
0
0
0
0
0
0
0
0
0
0
0
0
0
0
0
0
0
0
0
0
0
0
0
0
0
0
0
0
0
0
0
0
0
0
0
0
0
0
0
0
0
0
0
0
0
0
0
0
0
0
0
0
0
0
0
0
0
0
0
0
0
0
0
0
0
0
0
0
0
0
0
0
0
0
0
0
0
0
0
0
76
34
0
125
56
0
77
34
0
195
87
0
147
66
0
61
27
0
161
72
0
95
42
0
0
0
0
0
0
0
0
0
0
0
0
0
0
0
0
0
0
0
0
0
0
0
0
0
0
0
0
0
0
0
0
0
0
0
0
0
0
0
0
0
0
0
0
0
0
0
0
0
0
0
0
0
0
0
0
0
0
0
0
0
0
0
0
0
0
0
0
0
0
0
0
0
0
0
0
0
0
0
0
0
0
0
0
0
0
0
0
0
0
0
0
0
0
0
0
0
0
0
0
0
0
0
0
0
0
0
0
0
0
0
0
0
0
0
0
0
0
0
0
0
0
0
0
0
0
0
0
0
0
0
0
0
0
0
0
0
0
0
0
0
0
0
0
0
0
0
0
0
0
0
0
0
0
0
0
0
0
0
0
3
1
0
0
0
0
35
15
0
17
7
0
0
0
0
13
6
0
0
0
0
0
0
0
0
0
0
0
0
0
0
0
0
0
0
0
0
0
0
0
0
0
0
0
0
0
0
0
0
0
0
0
0
0
0
0
0
0
0
0
0
0
0
0
0
0
0
0
0
0
0
0
0
0
0
0
0
0
0
0
0
0
0
0
0
0
0
0
0
0
0
0
0
0
0
0
0
0
0
0
0
0
0
0
0
0
0
0
0
0
0
0
0
0
0
0
0
0
0
0
0
0
0
0
0
0
0
0
0
0
0
0
0
0
0
0
0
0
0
0
0
0
0
0
0
0
0
0
0
0
0
0
0
0
0
0
0
0
0
0
0
0
0
0
0
0
0
0
0
0
0
0
0
0
0
0
0
0
0
0
0
0
0
0
0
0
0
0
0
0
0
0
0
0
0
0
0
0
0
0
0
0
0
0
0
0
0
0
0
0
0
0
0
0
0
0
0
0
0
0
0
0
0
0
0
0
0
0
0
0
0
0
0
0
0
0
0
0
0
0
0
0
0
0
0
0
0
0
0
0
0
0
0
0
0
0
0
0
0
0
0
0
0
0
0
0
0
0
0
0
0
0
0
0
0
0
0
0
0
0
0
0
0
0
0
0
0
0
0
0
0
0
0
0
0
0
0
0
0
0
0
0
0
0
0
0
0
0
0
0
0
0
0
0
0
0
0
0
0
0
0
0
0
0
0
0
0
0
0
0
0
0
0
0
0
0
0
0
0
0
0
0
0
0
0
0
0
0
0
0
0
0
0
0
0
0
0
0
0
0
0
0
0
0
0
0
0
0
0
0
0
0
0
0
0
0
0
0
0
0
0
0
0
0
0
0
0
0
0
0
0
0
0
0
0
0
0
0
0
0
0
0
0
0
0
0
0
0
0
0
0
0
0
0
0
0
0
0
0
0
0
0
0
0
0
0
0
0
0
0
0
0
0
0
0
0
0
0
0
0
0
0
0
0
0
0
0
0
0
0
0
0
0
0
0
0
0
0
0
0
0
0
0
0
0
0
0
0
0
0
0
0
0
0
0
0
0
0
0
0
0
0
0
0
0
0
0
0
0
0
0
0
0
0
0
0
0
0
0
0
0
0
0
0
0
0
0
0
0
0
0
0
0
0
0
0
0
0
0
0
0
0
0
0
0
0
0
0
0
0
0
0
0
0
0
0
0
0
0
0
0
0
0
0
0
0
0
0
0
0
0
0
0
0
0
0
0
0
0
0
0
0
0
0
0
0
0
0
0
0
0
0
0
0
0
0
0
0
0
0
0
0
0
0
0
0
0
0
0
0
0
0
0
0
0
0
0
0
0
0
0
0
0
0
0
0
0
0
0
0
0
0
0
0
0
0
0
0
0
0
0
0
0
0
0
0
0
0
0
0
0
0
0
0
0
0
0
0
0
0
0
0
0
0
0
0
0
0
0
0
0
0
0
0
0
0
0
0
0
0
0
0
0
0
0
0
0
0
0
0
0
0
0
0
0
0
0
0
0
0
0
0
0
0
0
0
0
0
0
0
0
0
0
0
0
0
0
0
0
0
0
0
0
0
0
0
0
0
0
0
0
0
0
0
0
0
0
0
0
0
0
0
0
0
0
0
0
0
0
0
0
0
0
0
0
0
0
0
0
0
0
0
0
0
0
0
0
0
0
0
0
0
0
0
0
0
0
0
0
0
0
0
0
0
0
0
0
0
0
0
0
0
0
0
0
0
0
0
0
0
0
0
0
0
0
0
0
0
0
0
0
0
0
0
0
