P3
# CREATOR: GIMP PNM Filter Version 1.1
60 80
255
0
0
0
0
0
0
0
0
0
0
0
0
0
0
0
0
0
0
0
0
0
0
0
0
0
0
0
0
0
0
0
0
0
0
0
0
0
0
0
0
0
0
0
0
0
0
0
0
0
0
0
0
0
0
0
0
0
0
0
0
0
0
0
0
0
0
0
0
0
0
0
0
0
0
0
0
0
0
0
0
0
0
0
0
0
0
0
0
0
0
0
0
0
0
0
0
0
0
0
0
0
0
0
0
0
0
0
0
0
0
0
0
0
0
0
0
0
0
0
0
0
0
0
0
0
0
0
0
0
0
0
0
0
0
0
0
0
0
0
0
0
0
0
0
0
0
0
0
0
0
0
0
0
0
0
0
0
0
0
0
0
0
0
0
0
0
0
0
0
0
0
0
0
0
0
0
0
0
0
0
0
0
0
0
0
0
0
0
0
0
0
0
0
0
0
0
0
0
0
0
0
0
0
0
0
0
0
0
0
0
0
0
0
0
0
0
0
0
0
0
0
0
0
0
0
0
0
0
0
0
0
0
0
0
0
0
0
0
0
0
0
0
0
0
0
0
0
0
0
0
0
0
0
0
0
0
0
0
0
0
0
0
0
0
0
0
0
0
0
0
0
0
0
0
0
0
0
0
0
0
0
0
0
0
0
0
0
0
0
0
0
0
0
0
0
0
0
0
0
0
0
0
0
0
0
0
0
0
0
0
0
0
0
0
0
0
0
0
0
0
0
0
0
0
0
0
0
0
0
0
0
0
0
0
0
0
0
0
0
0
0
0
0
0
0
0
0
0
0
0
0
0
0
0
0
0
0
0
0
0
0
0
0
0
0
0
0
0
0
0
0
0
0
0
0
0
0
0
0
0
0
0
0
0
0
0
0
0
0
0
0
0
0
0
0
0
0
0
0
0
0
0
0
0
0
0
0
0
0
0
0
0
0
0
0
0
0
0
0
0
0
0
0
0
0
0
0
0
0
0
0
0
0
0
0
0
0
0
0
0
0
0
0
0
0
0
0
0
0
0
0
0
0
0
0
0
0
0
0
0
0
0
0
0
0
0
0
0
0
0
0
0
0
0
0
0
0
0
0
0
0
0
0
0
0
0
0
0
0
0
0
0
0
0
0
0
0
0
0
0
0
0
0
0
0
0
0
0
0
0
0
0
0
0
0
0
0
0
0
0
0
0
0
0
0
0
0
0
0
0
0
0
0
0
0
0
0
0
0
0
0
0
0
0
0
0
0
0
0
0
0
0
0
0
0
0
0
0
0
0
0
0
0
0
0
0
0
0
0
0
0
0
0
0
0
0
0
0
0
0
0
0
0
0
0
0
0
0
0
0
0
0
0
0
0
0
0
0
0
0
0
0
0
0
0
0
0
0
0
0
0
0
0
0
0
0
0
0
0
0
0
0
0
0
0
0
0
0
0
0
0
0
0
0
0
0
0
0
0
0
0
0
0
0
0
0
0
0
0
0
0
0
0
0
0
0
0
0
0
0
0
0
0
0
0
0
0
0
0
0
0
0
0
0
0
0
0
0
0
0
0
0
0
0
0
0
0
0
0
0
0
0
0
0
0
0
0
0
0
0
0
0
0
0
0
0
0
0
0
0
0
0
0
0
0
0
0
0
0
0
0
0
0
0
0
0
0
0
0
0
0
0
0
0
0
0
0
0
0
0
0
0
0
0
0
0
0
0
0
0
0
0
0
0
0
0
0
0
0
0
0
0
0
0
0
0
0
0
0
0
0
0
0
0
0
0
0
0
0
0
0
0
0
0
0
0
0
0
0
0
0
0
0
0
0
0
0
0
0
0
0
0
0
0
0
0
0
0
0
0
0
0
0
0
0
0
0
0
0
0
0
0
0
0
0
0
0
0
0
0
0
0
0
0
0
0
0
0
0
0
0
0
0
0
0
0
0
0
0
0
0
0
0
0
0
0
0
0
0
0
0
0
0
0
0
0
0
0
0
0
0
0
0
0
0
0
0
0
0
0
0
0
0
0
0
0
0
0
0
0
0
0
0
0
0
0
0
0
0
0
0
0
0
0
0
0
0
0
0
0
0
0
0
0
0
0
0
0
0
0
0
0
0
0
0
0
0
0
0
0
0
0
0
0
0
0
0
0
0
0
0
0
0
0
0
0
0
0
0
0
0
0
0
0
0
0
0
0
0
0
0
0
0
0
0
0
0
0
0
0
0
0
0
0
0
0
0
0
0
0
0
0
0
0
0
0
0
0
0
0
0
0
0
0
0
0
0
0
0
0
0
0
0
0
0
0
0
0
0
0
0
0
0
0
0
0
0
0
0
0
0
0
0
0
0
0
0
0
0
0
0
0
0
0
0
0
0
0
0
0
0
0
0
0
0
0
0
0
0
0
0
0
0
0
0
0
0
0
0
0
0
0
0
0
0
0
0
0
0
0
0
0
0
0
0
0
0
0
0
0
0
0
0
0
0
0
0
0
0
0
0
0
0
0
0
0
0
0
0
0
0
0
0
0
0
0
0
0
0
0
0
0
0
0
0
0
0
0
0
0
0
0
0
0
0
0
0
0
0
0
0
0
0
0
0
0
0
0
0
0
0
0
0
0
0
0
0
0
0
0
0
0
0
0
0
0
0
0
0
0
0
0
0
0
0
0
0
0
0
0
0
0
0
0
0
0
0
0
0
0
0
0
0
0
0
0
0
0
0
0
0
0
0
0
0
0
0
0
0
0
0
0
0
0
0
0
0
0
0
0
0
0
0
0
0
0
0
0
0
0
0
0
0
0
0
0
0
0
0
0
0
0
0
0
0
0
0
0
0
0
0
0
0
0
0
0
0
0
0
0
0
0
0
0
0
0
0
0
0
0
0
0
0
0
0
0
0
0
0
0
0
0
0
0
0
0
0
0
0
0
0
0
0
0
0
0
0
0
0
0
0
0
0
0
0
0
0
0
0
0
0
0
0
0
0
0
0
0
0
0
0
0
0
0
0
0
0
0
0
0
0
0
0
0
0
0
0
0
0
0
0
0
0
0
0
0
0
0
0
0
0
0
0
0
0
0
0
0
0
0
0
0
0
0
0
0
0
0
0
0
0
0
0
0
0
0
0
0
0
0
0
0
0
0
0
0
0
0
0
0
0
0
0
0
0
0
0
0
0
0
0
0
0
0
0
0
0
0
0
0
0
0
0
0
0
0
0
0
0
0
0
0
0
0
0
0
0
0
0
0
0
0
0
0
0
0
0
0
0
0
0
0
0
0
0
0
0
0
0
0
0
0
0
0
0
0
0
0
0
0
0
0
0
0
0
0
0
0
0
0
0
0
0
0
0
0
0
0
0
0
0
0
0
0
0
0
0
0
0
0
0
0
0
0
0
0
0
0
0
0
0
0
0
0
0
0
0
0
0
0
0
0
0
0
0
0
0
0
0
0
0
0
0
0
0
0
0
0
0
0
0
0
0
0
0
0
0
0
0
0
0
0
0
0
0
0
0
0
0
0
0
0
0
0
0
0
0
0
0
0
0
0
0
0
0
0
0
0
0
0
0
0
0
0
0
0
0
0
0
0
0
0
0
0
0
0
0
0
0
0
0
0
0
0
0
0
0
0
0
0
0
0
0
0
0
0
0
0
0
0
0
0
0
0
0
0
0
0
0
0
0
0
0
0
0
0
0
0
0
0
0
0
0
0
0
0
0
0
0
0
0
0
0
0
0
0
0
0
0
0
0
0
0
0
0
0
0
0
0
0
0
0
0
0
0
0
0
0
0
0
0
0
0
0
0
0
0
0
0
0
0
0
0
0
0
0
0
0
0
0
0
0
0
0
0
0
0
0
0
0
0
0
0
0
0
0
0
0
0
0
0
0
0
0
0
0
0
0
0
0
0
0
0
0
0
0
0
0
0
0
0
0
0
0
0
0
0
0
0
0
0
0
0
0
0
0
0
0
0
0
0
0
0
0
0
0
0
0
0
0
0
0
0
0
0
0
0
0
0
0
0
0
0
0
0
0
0
0
0
0
0
0
0
0
0
0
0
0
0
0
0
0
0
0
0
0
0
0
0
0
0
0
0
0
0
0
0
0
0
0
0
0
0
0
0
0
0
0
0
0
0
0
0
0
0
0
0
0
0
0
0
0
0
0
0
0
0
0
0
0
0
0
0
0
0
0
0
0
0
0
0
0
0
0
0
0
0
0
0
0
0
0
0
0
0
0
0
0
0
0
0
0
0
0
0
0
0
0
0
0
0
0
0
0
0
0
0
0
0
0
0
0
0
0
0
0
0
0
0
0
0
0
0
0
1
1
3
6
7
5
7
9
2
2
2
0
0
0
0
0
0
0
0
0
0
0
0
0
0
0
0
0
0
0
0
0
0
0
0
0
0
0
0
0
0
0
0
0
0
0
0
0
0
0
0
0
0
0
0
0
0
0
0
0
0
0
0
0
0
0
0
0
0
0
0
0
0
0
0
0
0
0
0
0
0
0
0
0
0
0
0
0
0
0
0
0
0
0
0
0
0
0
0
0
0
0
0
0
0
0
0
0
0
0
0
0
0
0
0
0
0
0
0
0
0
0
0
0
0
0
0
0
0
0
0
0
0
0
0
0
0
0
0
0
0
0
0
0
0
0
0
0
0
0
0
0
0
0
0
0
0
0
0
0
0
0
0
0
0
0
0
0
0
0
0
0
0
16
21
25
59
75
90
94
120
144
117
148
178
121
154
185
107
135
163
77
98
118
37
47
56
2
3
3
0
0
0
0
0
0
0
0
0
0
0
0
0
0
0
0
0
0
0
0
0
0
0
0
0
0
0
0
0
0
0
0
0
0
0
0
0
0
0
0
0
0
0
0
0
0
0
0
0
0
0
0
0
0
0
0
0
0
0
0
0
0
0
0
0
0
0
0
0
0
0
0
0
0
0
0
0
0
0
0
0
0
0
0
0
0
0
0
0
0
0
0
0
0
0
0
0
0
0
0
0
0
0
0
0
0
0
0
0
0
0
0
0
0
0
0
0
0
0
0
0
0
0
0
0
0
0
0
0
0
0
0
0
0
0
0
0
0
0
0
0
0
0
0
0
0
0
2
3
3
65
83
100
126
160
193
163
207
249
167
212
255
167
212
255
167
212
255
167
212
255
166
211
254
152
194
233
98
125
151
35
45
55
0
0
0
0
0
0
0
0
0
0
0
0
0
0
0
0
0
0
0
0
0
0
0
0
0
0
0
0
0
0
0
0
0
0
0
0
0
0
0
0
0
0
0
0
0
0
0
0
0
0
0
0
0
0
0
0
0
0
0
0
0
0
0
0
0
0
0
0
0
0
0
0
0
0
0
0
0
0
0
0
0
0
0
0
0
0
0
0
0
0
0
0
0
0
0
0
0
0
0
0
0
0
0
0
0
0
0
0
0
0
0
0
0
0
0
0
0
0
0
0
0
0
0
0
0
0
0
0
0
0
0
0
0
0
0
0
0
0
0
0
0
16
21
26
93
119
143
162
206
248
167
212
255
167
212
255
167
212
255
167
212
255
167
212
255
167
212
255
167
212
255
167
212
255
167
212
255
135
172
207
62
79
95
0
0
0
0
0
0
0
0
0
0
0
0
0
0
0
0
0
0
0
0
0
0
0
0
0
0
0
0
0
0
0
0
0
0
0
0
0
0
0
0
0
0
0
0
0
0
0
0
0
0
0
0
0
0
0
0
0
0
0
0
0
0
0
0
0
0
0
0
0
0
0
0
0
0
0
0
0
0
0
0
0
0
0
0
0
0
0
0
0
0
2
1
0
0
0
0
0
0
0
0
0
0
0
0
0
0
0
0
0
0
0
0
0
0
0
0
0
0
0
0
0
0
0
0
0
0
0
0
0
0
0
0
0
0
0
11
15
18
102
129
156
167
212
255
167
212
255
154
196
236
136
173
209
166
211
254
167
212
255
167
212
255
146
185
223
150
191
230
167
212
255
167
212
255
167
212
255
150
191
230
67
85
103
0
0
0
0
0
0
0
0
0
0
0
0
0
0
0
0
0
0
0
0
0
0
0
0
0
0
0
0
0
0
0
0
0
0
0
0
0
0
0
0
0
0
0
0
0
0
0
0
0
0
0
0
0
0
0
0
0
0
0
0
0
0
0
0
0
0
0
0
0
0
0
0
0
0
0
6
3
1
31
19
5
23
14
4
10
6
1
50
31
8
42
26
7
0
0
0
0
0
0
0
0
0
0
0
0
0
0
0
0
0
0
0
0
0
0
0
0
0
0
0
0
0
0
0
0
0
0
0
0
0
0
0
80
102
123
166
211
254
167
212
255
162
206
248
67
86
103
17
22
27
119
151
182
167
212
255
129
164
197
36
46
56
56
71
86
155
197
237
167
212
255
167
212
255
167
212
255
148
188
226
57
73
88
0
0
0
0
0
0
0
0
0
0
0
0
0
0
0
0
0
0
0
0
0
0
0
0
0
0
0
0
0
0
0
0
0
0
0
0
0
0
0
0
0
0
0
0
0
0
0
0
0
0
0
0
0
0
0
0
0
0
0
0
0
0
0
0
0
0
0
0
0
0
0
0
5
4
3
42
26
7
79
50
14
70
44
12
41
26
7
99
63
17
44
27
7
0
0
0
0
0
0
0
0
0
0
0
0
0
0
0
0
0
0
0
0
0
0
0
0
0
0
0
0
0
0
0
0
0
27
34
41
141
179
216
167
212
255
167
212
255
136
173
208
14
18
21
7
9
11
121
154
185
166
211
254
85
107
129
0
0
0
43
55
66
157
200
241
167
212
255
167
212
255
167
212
255
167
212
255
129
164
198
31
39
47
0
0
0
0
0
0
0
0
0
0
0
0
0
0
0
0
0
0
0
0
0
0
0
0
0
0
0
0
0
0
0
0
0
0
0
0
0
0
0
0
0
0
0
0
0
0
0
0
0
0
0
0
0
0
0
0
0
26
26
26
26
26
26
79
79
79
107
107
107
121
121
121
77
77
77
24
18
12
87
55
15
60
38
10
69
43
12
115
73
20
11
7
2
0
0
0
0
0
0
0
0
0
0
0
0
0
0
0
0
0
0
0
0
0
0
0
0
0
0
0
0
0
0
76
97
116
166
211
254
167
212
255
167
212
255
123
157
189
6
7
9
24
30
36
148
188
226
164
209
251
62
79
95
0
0
0
74
94
113
166
211
254
167
212
255
167
212
255
167
212
255
167
212
255
167
212
255
94
120
144
1
1
2
0
0
0
31
31
31
84
84
84
48
48
48
0
0
0
0
0
0
0
0
0
0
0
0
0
0
0
0
0
0
0
0
0
0
0
0
0
0
0
0
0
0
0
0
0
0
0
0
0
0
0
85
85
85
193
193
193
156
156
156
148
148
148
175
175
175
182
182
182
189
189
189
109
109
109
30
20
7
88
55
15
25
15
4
124
78
22
71
45
12
0
0
0
0
0
0
0
0
0
0
0
0
0
0
0
0
0
0
0
0
0
0
0
0
0
0
0
7
10
12
120
153
184
167
212
255
167
212
255
167
212
255
133
169
204
26
33
39
62
79
95
158
201
242
165
210
253
81
103
124
7
10
12
105
133
160
167
212
255
167
212
255
167
212
255
167
212
255
167
212
255
167
212
255
153
194
234
42
53
64
12
12
12
163
163
163
253
253
253
196
196
196
57
57
57
0
0
0
0
0
0
0
0
0
0
0
0
0
0
0
0
0
0
0
0
0
0
0
0
0
0
0
0
0
0
0
0
0
3
3
3
149
149
149
236
236
236
215
215
215
163
163
163
185
185
185
175
175
175
172
172
172
173
173
173
68
68
68
72
45
12
61
38
10
76
48
13
126
79
22
9
5
1
0
0
0
0
0
0
0
0
0
0
0
0
0
0
0
0
0
0
0
0
0
0
0
0
31
40
47
152
193
232
167
212
255
167
212
255
167
212
255
165
209
252
120
153
184
117
149
179
125
158
191
128
162
195
128
163
196
125
159
191
166
211
254
167
212
255
167
212
255
167
212
255
167
212
255
167
212
255
167
212
255
166
211
254
63
80
96
79
79
79
245
245
245
255
255
255
255
255
255
156
156
156
5
5
5
0
0
0
0
0
0
0
0
0
0
0
0
0
0
0
0
0
0
0
0
0
0
0
0
0
0
0
0
0
0
8
8
8
172
172
172
236
236
236
236
236
236
176
176
176
178
178
178
204
204
204
197
197
197
185
185
185
118
118
118
27
17
6
82
52
14
37
23
6
150
95
27
43
27
7
0
0
0
0
0
0
0
0
0
0
0
0
0
0
0
0
0
0
0
0
0
0
0
0
61
78
94
165
209
252
167
212
255
167
212
255
134
171
205
73
92
111
37
43
48
35
32
24
43
35
21
39
33
22
34
36
36
61
78
94
117
149
179
167
212
255
167
212
255
167
212
255
167
212
255
167
212
255
167
212
255
159
202
242
43
55
66
139
139
139
255
255
255
255
255
255
223
223
223
123
123
123
11
11
11
0
0
0
0
0
0
0
0
0
0
0
0
0
0
0
0
0
0
0
0
0
0
0
0
0
0
0
0
0
0
7
7
7
169
169
169
236
236
236
236
236
236
203
203
203
150
150
150
183
183
183
196
196
196
204
204
204
176
176
176
37
35
33
88
56
15
27
17
4
141
89
25
79
50
14
0
0
0
0
0
0
0
0
0
0
0
0
0
0
0
0
0
0
0
0
0
0
0
0
89
114
137
167
212
255
167
212
255
130
166
199
43
55
66
84
61
26
163
118
50
207
150
64
222
161
69
216
157
67
181
131
56
105
76
32
27
32
37
116
148
178
167
212
255
167
212
255
167
212
255
167
212
255
167
212
255
147
187
225
32
38
44
183
183
183
255
255
255
254
254
254
127
127
127
26
33
40
48
61
73
7
9
11
0
0
0
0
0
0
0
0
0
0
0
0
0
0
0
0
0
0
0
0
0
0
0
0
0
0
0
2
2
2
149
149
149
236
236
236
236
236
236
229
229
229
165
165
165
184
184
184
175
175
175
175
175
175
171
171
171
51
51
51
82
52
14
33
21
6
122
77
22
106
67
19
1
0
0
0
0
0
0
0
0
0
0
0
0
0
0
0
0
0
0
0
0
3
3
4
114
144
174
167
212
255
160
203
244
61
77
93
95
69
29
224
162
69
248
180
77
248
180
77
248
180
77
248
180
77
248
180
77
246
178
76
112
81
34
57
73
88
161
204
246
167
212
255
167
212
255
167
212
255
167
212
255
139
177
213
31
35
39
200
200
200
255
255
255
249
249
249
85
85
85
76
96
116
161
205
247
108
137
165
38
48
58
0
0
0
0
0
0
0
0
0
0
0
0
0
0
0
0
0
0
0
0
0
0
0
0
0
0
0
113
113
113
236
236
236
236
236
236
235
235
235
166
166
166
192
192
192
198
198
198
192
192
192
177
177
177
55
55
55
72
45
13
39
25
7
109
69
19
120
76
21
2
2
0
0
0
0
0
0
0
0
0
0
0
0
0
0
0
0
0
0
0
18
25
30
141
179
215
167
212
255
114
145
175
40
32
20
197
143
61
248
180
77
248
180
77
248
180
77
248
180
77
248
180
77
248
180
77
248
180
77
181
131
56
35
38
38
147
187
225
167
212
255
167
212
255
167
212
255
167
212
255
136
172
208
30
34
37
204
204
204
255
255
255
251
251
251
92
92
92
72
92
110
166
211
254
167
212
255
127
161
194
44
56
67
0
0
0
0
0
0
0
0
0
0
0
0
0
0
0
0
0
0
0
0
0
0
0
0
67
67
67
226
226
226
236
236
236
236
236
236
164
164
164
169
169
169
182
182
182
190
190
190
181
181
181
68
68
68
70
44
12
39
25
7
110
69
19
114
72
20
2
1
0
0
0
0
0
0
0
0
0
0
0
0
0
0
0
0
0
0
0
54
69
83
162
206
248
166
211
254
74
94
114
97
70
30
245
178
76
248
180
77
248
180
77
248
180
77
248
180
77
248
180
77
248
180
77
248
180
77
170
123
52
35
40
42
149
189
228
167
212
255
167
212
255
167
212
255
167
212
255
143
182
219
30
35
40
189
189
189
255
255
255
254
254
254
122
122
122
52
66
79
163
207
249
167
212
255
167
212
255
126
160
192
39
50
60
0
0
0
0
0
0
0
0
0
0
0
0
0
0
0
0
0
0
0
0
0
23
23
23
190
190
190
236
236
236
236
236
236
189
189
189
163
163
163
176
176
176
177
177
177
164
164
164
55
55
55
74
47
13
34
21
5
127
80
22
86
54
15
0
0
0
0
0
0
0
0
0
0
0
0
0
0
0
0
0
0
0
0
0
94
120
144
167
212
255
160
204
245
48
60
71
143
104
44
248
180
77
248
180
77
248
180
77
248
180
77
248
180
77
248
180
77
248
180
77
244
177
75
99
72
30
66
84
102
164
209
251
167
212
255
167
212
255
167
212
255
167
212
255
156
198
238
37
47
55
158
158
158
255
255
255
255
255
255
172
172
172
27
33
38
132
167
201
167
212
255
167
212
255
167
212
255
117
148
178
24
31
38
0
0
0
0
0
0
0
0
0
0
0
0
0
0
0
0
0
0
0
0
0
121
121
121
236
236
236
236
236
236
190
190
190
162
162
162
177
177
177
178
178
178
135
135
135
31
30
28
115
72
20
129
81
23
145
91
26
39
25
7
0
0
0
0
0
0
0
0
0
0
0
0
0
0
0
0
0
0
13
18
21
133
169
204
167
212
255
157
199
240
41
50
57
166
120
51
248
180
77
248
180
77
248
180
77
248
180
77
248
180
77
248
180
77
247
179
76
136
98
42
31
37
42
124
158
190
167
212
255
167
212
255
167
212
255
167
212
255
167
212
255
163
207
249
54
68
82
121
121
121
254
254
254
255
255
255
239
239
239
77
77
77
76
96
116
166
211
254
167
212
255
167
212
255
167
212
255
99
126
151
4
6
9
0
0
0
0
0
0
0
0
0
0
0
0
0
0
0
0
0
0
42
42
42
189
189
189
236
236
236
166
166
166
168
168
168
149
149
149
107
107
107
48
48
47
38
24
6
144
91
25
158
100
28
68
43
12
0
0
0
0
0
0
0
0
0
0
0
0
0
0
0
0
0
0
0
0
0
50
64
77
159
203
244
167
212
255
158
201
242
43
53
62
158
114
49
248
180
77
248
180
77
248
180
77
248
180
77
248
180
77
222
161
68
121
87
37
32
36
37
104
132
159
167
212
255
167
212
255
167
212
255
167
212
255
167
212
255
167
212
255
167
212
255
81
103
124
80
80
80
248
248
248
255
255
255
255
255
255
164
164
164
27
32
37
125
159
192
167
212
255
167
212
255
167
212
255
166
211
253
76
96
116
0
0
0
0
0
0
0
0
0
0
0
0
0
0
0
0
0
0
0
0
0
84
84
84
178
178
178
113
113
113
77
77
77
20
20
20
0
0
0
57
36
10
151
95
27
177
112
32
121
76
21
1
1
0
0
0
0
0
0
0
0
0
0
0
0
0
0
0
0
0
0
0
1
1
2
97
124
149
167
212
255
167
212
255
163
207
249
55
70
85
125
91
38
247
179
76
248
180
77
245
178
76
222
161
69
152
110
47
67
49
21
43
54
65
113
144
173
167
212
255
167
212
255
167
212
255
167
212
255
167
212
255
167
212
255
167
212
255
167
212
255
113
144
173
42
43
44
223
223
223
255
255
255
238
238
238
245
245
245
90
90
90
66
84
101
164
208
250
167
212
255
167
212
255
167
212
255
146
185
223
48
62
74
0
0
0
0
0
0
0
0
0
0
0
0
0
0
0
0
0
0
0
0
0
21
21
21
0
0
0
0
0
0
0
0
0
0
0
0
55
34
9
171
108
30
177
112
32
144
91
26
17
10
3
0
0
0
0
0
0
0
0
0
0
0
0
0
0
0
1
1
2
26
33
40
143
182
219
167
212
255
167
212
255
167
212
255
87
111
133
41
30
13
113
82
35
120
87
37
91
66
28
47
36
19
37
45
51
86
109
131
144
183
221
167
212
255
167
212
255
167
212
255
167
212
255
167
212
255
167
212
255
167
212
255
167
212
255
167
212
255
144
183
220
31
38
44
166
166
166
241
241
241
115
115
115
191
191
191
181
181
181
29
31
34
111
141
170
167
212
255
167
212
255
167
212
255
167
212
255
116
147
177
14
19
23
0
0
0
0
0
0
0
0
0
0
0
0
0
0
0
0
0
0
0
0
0
0
0
0
0
0
0
0
0
0
0
0
0
20
12
3
149
94
26
177
112
32
168
106
30
49
31
8
0
0
0
0
0
0
3
3
4
29
36
44
71
91
110
26
34
41
73
93
112
166
211
254
167
212
255
167
212
255
167
212
255
153
194
234
95
121
145
64
82
98
60
76
92
79
101
121
111
141
170
148
189
227
166
211
254
167
212
255
167
212
255
167
212
255
167
212
255
167
212
255
167
212
255
167
212
255
167
212
255
167
212
255
167
212
255
164
209
251
66
84
101
96
96
96
244
244
244
81
81
81
136
136
136
253
253
253
114
114
114
48
61
74
152
193
232
167
212
255
167
212
255
167
212
255
166
211
254
79
101
121
0
0
0
0
0
0
0
0
0
0
0
0
0
0
0
0
0
0
0
0
0
0
0
0
0
0
0
0
0
0
0
0
0
2
1
0
111
70
20
177
112
32
176
111
31
89
56
16
3
4
5
65
83
100
108
137
165
148
188
226
121
154
186
23
29
36
122
155
187
167
212
255
167
212
255
167
212
255
167
212
255
167
212
255
167
212
255
165
209
251
164
209
251
166
211
254
167
212
255
167
212
255
167
212
255
167
212
255
167
212
255
167
212
255
167
212
255
167
212
255
167
212
255
167
212
255
167
212
255
167
212
255
167
212
255
167
212
255
79
101
121
71
71
71
242
242
242
138
138
138
73
73
73
241
241
241
210
210
210
52
52
52
89
113
136
167
212
255
167
212
255
167
212
255
167
212
255
141
179
216
34
43
52
0
0
0
0
0
0
0
0
0
0
0
0
0
0
0
0
0
0
0
0
0
0
0
0
0
0
0
0
0
0
2
3
4
71
45
12
175
110
31
177
112
32
130
82
23
26
27
27
135
171
206
167
212
255
166
210
253
71
90
108
58
73
88
161
205
247
167
212
255
167
212
255
167
212
255
167
212
255
167
212
255
160
203
245
137
174
210
115
146
176
99
126
152
91
116
140
94
119
143
107
136
163
128
162
195
153
195
234
167
212
255
167
212
255
167
212
255
167
212
255
167
212
255
167
212
255
167
212
255
167
212
255
163
207
249
57
72
87
117
117
117
254
254
254
213
213
213
53
53
53
156
156
156
255
255
255
148
148
148
29
36
43
127
162
195
167
212
255
167
212
255
167
212
255
167
212
255
89
113
136
0
0
1
0
0
0
0
0
0
0
0
0
0
0
0
0
0
0
0
0
0
0
0
0
0
0
0
40
51
61
59
76
91
33
21
7
159
100
28
177
112
32
161
102
29
37
24
9
100
127
153
167
212
255
140
178
214
27
34
41
108
137
165
167
212
255
167
212
255
167
212
255
167
212
255
155
197
237
101
129
155
52
66
80
30
34
38
43
44
45
62
62
62
70
70
70
67
67
67
52
53
53
32
34
37
38
48
58
85
109
131
141
179
216
167
212
255
167
212
255
167
212
255
167
212
255
167
212
255
167
212
255
160
204
245
47
60
72
129
129
129
255
255
255
255
255
255
139
139
139
59
59
59
218
218
218
243
243
243
90
90
90
62
79
95
160
203
245
167
212
255
167
212
255
167
212
255
106
135
163
2
2
3
0
0
0
0
0
0
0
0
0
0
0
0
0
0
0
0
0
0
0
0
0
20
26
32
122
154
186
121
154
186
17
20
23
63
40
11
99
62
17
154
97
27
74
47
13
62
78
94
164
208
250
95
121
145
36
46
56
151
192
232
167
212
255
167
212
255
167
212
255
123
157
189
53
67
81
42
43
43
120
120
120
188
188
188
227
227
227
243
243
243
246
246
246
245
245
245
237
237
237
207
207
207
143
143
143
64
64
64
36
46
55
105
134
161
166
211
254
167
212
255
167
212
255
167
212
255
167
212
255
165
210
253
72
92
111
89
89
89
250
250
250
255
255
255
237
237
237
125
125
125
200
200
200
255
255
255
191
191
191
40
41
41
96
122
147
167
212
255
167
212
255
166
211
254
74
95
114
0
0
0
0
0
0
0
0
0
0
0
0
0
0
0
0
0
0
0
0
0
0
0
0
65
82
99
163
207
250
91
116
139
29
36
44
56
72
87
35
44
53
63
40
11
104
66
18
28
33
37
83
106
127
34
44
53
80
101
122
166
211
254
167
212
255
167
212
255
112
142
171
32
40
49
101
101
101
203
203
203
254
254
254
255
255
255
255
255
255
255
255
255
255
255
255
255
255
255
255
255
255
255
255
255
255
255
255
229
229
229
128
128
128
31
34
38
91
116
139
166
211
254
167
212
255
167
212
255
167
212
255
167
212
255
119
151
182
27
30
33
171
171
171
255
255
255
255
255
255
191
191
191
224
224
224
255
255
255
255
255
255
139
139
139
31
39
47
129
164
198
167
212
255
136
173
209
30
38
46
0
0
0
0
0
0
0
0
0
0
0
0
0
0
0
0
0
0
0
0
0
0
0
0
72
91
110
167
212
255
148
188
226
146
186
223
166
210
253
127
161
194
25
28
30
104
66
18
23
14
4
1
1
2
9
12
15
123
156
188
167
212
255
167
212
255
124
157
189
32
40
49
121
121
121
243
243
243
255
255
255
255
255
255
255
255
255
255
255
255
255
255
255
255
255
255
255
255
255
255
255
255
255
255
255
255
255
255
255
255
255
254
254
254
152
152
152
31
33
36
99
126
152
167
212
255
167
212
255
167
212
255
167
212
255
166
211
254
73
93
112
80
80
80
241
241
241
250
250
250
102
102
102
131
131
131
254
254
254
255
255
255
239
239
239
88
88
88
62
78
94
149
189
227
64
82
99
0
0
0
0
0
0
0
0
0
0
0
0
0
0
0
0
0
0
0
0
0
0
0
0
0
0
0
32
41
49
122
155
187
162
205
247
163
207
249
155
197
237
115
146
175
24
28
30
124
78
22
59
37
10
0
0
0
36
46
55
154
195
235
167
212
255
155
197
237
54
68
82
99
99
99
241
241
241
255
255
255
255
255
255
255
255
255
255
255
255
255
255
255
255
255
255
255
255
255
255
255
255
255
255
255
255
255
255
255
255
255
255
255
255
255
255
255
255
255
255
137
137
137
29
36
43
126
160
193
167
212
255
167
212
255
167
212
255
167
212
255
130
165
199
28
32
37
181
181
181
255
255
255
130
130
130
116
116
116
253
253
253
255
255
255
255
255
255
188
188
188
24
24
24
38
49
59
0
0
0
0
0
0
0
0
0
0
0
0
0
0
0
0
0
0
0
0
0
0
0
0
0
0
0
0
0
0
0
0
0
18
24
29
47
59
72
50
63
76
35
44
53
17
19
20
71
45
12
166
105
29
99
63
17
0
0
0
71
91
109
166
211
253
167
212
255
97
124
149
47
47
48
205
205
205
255
255
255
255
255
255
255
255
255
255
255
255
255
255
255
255
255
255
255
255
255
255
255
255
255
255
255
255
255
255
255
255
255
255
255
255
255
255
255
255
255
255
255
255
255
245
245
245
95
95
95
63
80
97
162
206
248
167
212
255
167
212
255
167
212
255
162
206
248
53
67
81
123
123
123
255
255
255
224
224
224
214
214
214
255
255
255
255
255
255
255
255
255
246
246
246
79
79
79
0
0
0
0
0
0
0
0
0
0
0
0
0
0
0
0
0
0
0
0
0
0
0
0
0
0
0
0
0
0
0
0
0
0
0
0
0
0
0
0
0
0
0
0
0
0
0
0
49
31
8
167
105
30
177
112
32
139
88
25
16
12
6
106
134
162
167
212
255
153
194
234
42
53
64
132
132
132
255
255
255
255
255
255
255
255
255
255
255
255
255
255
255
255
255
255
255
255
255
255
255
255
255
255
255
255
255
255
255
255
255
255
255
255
255
255
255
255
255
255
255
255
255
255
255
255
255
255
255
188
188
188
31
34
36
116
147
177
167
212
255
167
212
255
167
212
255
167
212
255
83
105
126
78
78
78
247
247
247
255
255
255
224
224
224
247
247
247
255
255
255
255
255
255
255
255
255
140
140
140
0
0
0
0
0
0
0
0
0
0
0
0
0
0
0
0
0
0
0
0
0
0
0
0
0
0
0
0
0
0
0
0
0
0
0
0
0
0
0
0
0
0
0
0
0
0
0
0
27
17
5
156
98
28
177
112
32
141
89
25
26
24
22
134
170
205
167
212
255
113
144
173
38
39
41
211
211
211
255
255
255
255
255
255
255
255
255
255
255
255
255
255
255
255
255
255
255
255
255
255
255
255
255
255
255
255
255
255
255
255
255
255
255
255
255
255
255
255
255
255
255
255
255
255
255
255
255
255
255
250
250
250
98
98
98
65
83
100
164
209
251
167
212
255
167
212
255
167
212
255
101
128
154
57
58
58
240
240
240
242
242
242
88
88
88
164
164
164
255
255
255
255
255
255
255
255
255
197
197
197
16
16
16
0
0
0
0
0
0
0
0
0
0
0
0
0
0
0
0
0
0
0
0
0
0
0
0
0
0
0
0
0
0
0
0
0
0
0
0
0
0
0
0
0
0
0
0
0
5
3
1
122
77
22
177
112
32
120
76
21
33
39
45
151
192
231
166
211
253
73
93
112
91
91
91
250
250
250
255
255
255
255
255
255
255
255
255
255
255
255
255
255
255
255
255
255
255
255
255
255
255
255
255
255
255
255
255
255
255
255
255
255
255
255
255
255
255
255
255
255
255
255
255
255
255
255
255
255
255
255
255
255
170
170
170
29
35
41
142
180
217
167
212
255
167
212
255
167
212
255
105
134
161
53
54
54
237
237
237
238
238
238
55
55
55
145
145
145
255
255
255
255
255
255
255
255
255
232
232
232
45
45
45
0
0
0
0
0
0
0
0
0
0
0
0
0
0
0
0
0
0
0
0
0
0
0
0
0
0
0
0
0
0
0
0
0
0
0
0
0
0
0
0
0
0
0
0
0
0
0
0
82
52
14
176
111
31
97
61
17
46
58
70
161
204
246
156
199
239
40
51
61
146
146
146
255
255
255
255
255
255
255
255
255
255
255
255
255
255
255
255
255
255
255
255
255
255
255
255
255
255
255
255
255
255
255
255
255
255
255
255
255
255
255
255
255
255
255
255
255
255
255
255
255
255
255
255
255
255
255
255
255
228
228
228
45
46
47
107
136
164
167
212
255
167
212
255
167
212
255
95
121
146
62
62
62
242
242
242
248
248
248
81
81
81
111
111
111
254
254
254
255
255
255
255
255
255
249
249
249
78
78
78
0
0
0
0
0
0
0
0
0
0
0
0
0
0
0
0
0
0
0
0
0
0
0
0
0
0
0
0
0
0
0
0
0
0
0
0
0
0
0
0
0
0
0
0
0
0
0
0
42
26
7
164
104
29
77
49
13
60
76
92
165
209
252
141
179
216
31
36
40
193
193
193
255
255
255
255
255
255
255
255
255
255
255
255
255
255
255
255
255
255
255
255
255
255
255
255
255
255
255
255
255
255
255
255
255
255
255
255
255
255
255
255
255
255
255
255
255
255
255
255
255
255
255
255
255
255
255
255
255
251
251
251
91
91
91
75
95
115
166
211
254
167
212
255
166
211
254
84
107
128
76
76
76
248
248
248
255
255
255
137
137
137
51
51
51
224
224
224
255
255
255
255
255
255
251
251
251
85
85
85
0
0
0
0
0
0
0
0
0
0
0
0
0
0
0
0
0
0
0
0
0
0
0
0
0
0
0
0
0
0
0
0
0
0
0
0
0
0
0
0
0
0
0
0
0
0
0
0
13
7
2
127
80
22
62
39
11
72
91
110
166
211
254
125
159
191
40
42
44
222
222
222
255
255
255
255
255
255
255
255
255
255
255
255
255
255
255
255
255
255
255
255
255
255
255
255
255
255
255
255
255
255
255
255
255
255
255
255
255
255
255
255
255
255
255
255
255
255
255
255
255
255
255
255
255
255
255
255
255
255
255
255
135
135
135
47
59
71
160
204
245
167
212
255
166
211
254
85
108
130
76
76
76
249
249
249
255
255
255
211
211
211
47
47
47
123
123
123
254
254
254
255
255
255
240
240
240
60
60
60
0
0
0
0
0
0
0
0
0
0
0
0
0
0
0
0
0
0
0
0
0
0
0
0
0
0
0
0
0
0
0
0
0
0
0
0
0
0
0
0
0
0
0
0
0
0
0
0
0
0
0
29
18
5
8
5
1
80
102
123
167
212
255
108
138
166
51
51
52
236
236
236
255
255
255
255
255
255
255
255
255
255
255
255
255
255
255
255
255
255
255
255
255
255
255
255
255
255
255
255
255
255
255
255
255
255
255
255
255
255
255
255
255
255
255
255
255
255
255
255
255
255
255
255
255
255
255
255
255
255
255
255
171
171
171
34
42
50
152
193
233
167
212
255
167
212
255
107
136
163
47
47
48
226
226
226
255
255
255
255
255
255
151
151
151
20
20
20
127
127
127
222
222
222
226
226
226
37
37
37
0
0
0
0
0
0
0
0
0
0
0
0
0
0
0
0
0
0
0
0
0
0
0
0
0
0
0
0
0
0
0
0
0
0
0
0
0
0
0
0
0
0
0
0
0
0
0
0
0
0
0
0
0
0
0
0
0
83
106
128
167
212
255
97
123
148
61
62
62
242
242
242
255
255
255
255
255
255
255
255
255
255
255
255
255
255
255
255
255
255
255
255
255
255
255
255
255
255
255
255
255
255
255
255
255
255
255
255
255
255
255
255
255
255
255
255
255
255
255
255
255
255
255
255
255
255
255
255
255
255
255
255
196
196
196
32
37
42
143
182
219
167
212
255
167
212
255
145
184
222
35
44
53
138
138
138
255
255
255
255
255
255
254
254
254
130
130
130
3
3
3
46
46
46
88
88
88
16
16
16
0
0
0
0
0
0
0
0
0
0
0
0
0
0
0
0
0
0
0
0
0
0
0
0
0
0
0
0
0
0
0
0
0
0
0
0
0
0
0
0
0
0
0
0
0
0
0
0
0
0
0
0
0
0
0
0
0
80
102
123
167
212
255
91
115
139
68
68
68
246
246
246
255
255
255
255
255
255
255
255
255
255
255
255
255
255
255
255
255
255
255
255
255
255
255
255
255
255
255
255
255
255
255
255
255
255
255
255
255
255
255
255
255
255
255
255
255
255
255
255
255
255
255
255
255
255
255
255
255
255
255
255
208
208
208
33
36
40
136
173
208
167
212
255
167
212
255
167
212
255
96
123
148
33
34
35
167
167
167
255
255
255
255
255
255
189
189
189
10
10
10
0
0
0
0
0
0
0
0
0
0
0
0
0
0
0
0
0
0
0
0
0
0
0
0
0
0
0
0
0
0
0
0
0
0
0
0
0
0
0
0
0
0
0
0
0
0
0
0
0
0
0
0
0
0
0
0
0
0
0
0
0
0
0
0
0
0
72
91
110
166
211
254
89
113
137
70
70
70
246
246
246
255
255
255
255
255
255
255
255
255
255
255
255
255
255
255
255
255
255
255
255
255
255
255
255
255
255
255
255
255
255
255
255
255
255
255
255
255
255
255
255
255
255
255
255
255
255
255
255
255
255
255
255
255
255
255
255
255
255
255
255
212
212
212
33
36
39
133
168
203
167
212
255
167
212
255
167
212
255
166
210
253
80
101
122
48
48
48
186
186
186
255
255
255
162
162
162
4
4
4
0
0
0
0
0
0
0
0
0
0
0
0
0
0
0
0
0
0
0
0
0
0
0
0
0
0
0
0
0
0
0
0
0
0
0
0
0
0
0
0
0
0
0
0
0
0
0
0
0
0
0
0
0
0
0
0
0
0
0
0
0
0
0
0
0
0
60
76
92
164
209
251
93
118
142
66
66
66
244
244
244
255
255
255
255
255
255
255
255
255
255
255
255
255
255
255
255
255
255
255
255
255
255
255
255
255
255
255
255
255
255
255
255
255
255
255
255
255
255
255
255
255
255
255
255
255
255
255
255
255
255
255
255
255
255
255
255
255
255
255
255
211
211
211
33
36
39
134
170
204
167
212
255
167
212
255
167
212
255
167
212
255
158
201
242
63
81
97
70
70
70
214
214
214
114
114
114
0
0
0
0
0
0
0
0
0
0
0
0
0
0
0
0
0
0
0
0
0
0
0
0
0
0
0
0
0
0
0
0
0
0
0
0
0
0
0
0
0
0
0
0
0
0
0
0
0
0
0
0
0
0
0
0
0
0
0
0
0
0
0
0
0
0
0
0
0
45
57
69
161
204
246
101
128
155
57
58
58
240
240
240
255
255
255
255
255
255
255
255
255
255
255
255
255
255
255
255
255
255
255
255
255
255
255
255
255
255
255
255
255
255
255
255
255
255
255
255
255
255
255
255
255
255
255
255
255
255
255
255
255
255
255
255
255
255
255
255
255
255
255
255
204
204
204
32
36
40
139
177
213
167
212
255
167
212
255
167
212
255
167
212
255
167
212
255
95
121
145
1
1
1
88
88
88
50
50
50
0
0
0
0
0
0
0
0
0
0
0
0
0
0
0
0
0
0
0
0
0
0
0
0
0
0
0
0
0
0
0
0
0
0
0
0
0
0
0
0
0
0
0
0
0
0
0
0
0
0
0
0
0
0
0
0
0
0
0
0
0
0
0
0
0
0
0
0
0
27
34
42
151
191
230
114
144
174
47
48
48
232
232
232
255
255
255
255
255
255
255
255
255
255
255
255
255
255
255
255
255
255
255
255
255
255
255
255
255
255
255
255
255
255
255
255
255
255
255
255
255
255
255
255
255
255
255
255
255
255
255
255
255
255
255
255
255
255
255
255
255
255
255
255
186
186
186
33
39
45
147
187
225
167
212
255
167
212
255
167
212
255
167
212
255
167
212
255
77
99
119
0
0
0
0
0
0
0
0
0
0
0
0
0
0
0
0
0
0
0
0
0
0
0
0
0
0
0
0
0
0
0
0
0
0
0
0
0
0
0
0
0
0
0
0
0
0
0
0
0
0
0
0
0
0
0
0
0
0
0
0
0
0
0
0
0
0
0
0
0
0
0
0
0
0
0
0
0
0
11
16
19
133
169
204
129
164
197
37
40
42
218
218
218
255
255
255
255
255
255
255
255
255
255
255
255
255
255
255
255
255
255
255
255
255
255
255
255
255
255
255
255
255
255
255
255
255
255
255
255
255
255
255
255
255
255
255
255
255
255
255
255
255
255
255
255
255
255
255
255
255
255
255
255
157
157
157
37
47
56
155
197
238
167
212
255
167
212
255
167
212
255
167
212
255
161
204
246
48
62
74
0
0
0
0
0
0
0
0
0
0
0
0
0
0
0
0
0
0
0
0
0
0
0
0
0
0
0
0
0
0
0
0
0
0
0
0
0
0
0
0
0
0
0
0
0
0
0
0
0
0
0
0
0
0
0
0
0
0
0
0
0
0
0
0
0
0
0
0
0
0
0
0
0
0
0
0
0
0
2
2
3
106
135
162
143
181
218
31
36
41
192
192
192
255
255
255
255
255
255
255
255
255
255
255
255
255
255
255
255
255
255
255
255
255
255
255
255
255
255
255
255
255
255
255
255
255
255
255
255
255
255
255
255
255
255
255
255
255
255
255
255
255
255
255
255
255
255
255
255
255
254
254
254
120
120
120
56
72
87
163
207
249
167
212
255
167
212
255
167
212
255
167
212
255
137
175
210
18
24
29
0
0
0
0
0
0
0
0
0
0
0
0
0
0
0
0
0
0
0
0
0
0
0
0
0
0
0
0
0
0
0
0
0
0
0
0
0
0
0
0
0
0
0
0
0
0
0
0
0
0
0
0
0
0
0
0
0
0
0
0
0
0
0
0
0
0
0
0
0
0
0
0
0
0
0
0
0
0
0
0
0
73
93
112
155
197
237
38
48
58
156
156
156
255
255
255
255
255
255
255
255
255
255
255
255
255
255
255
255
255
255
255
255
255
255
255
255
255
255
255
255
255
255
255
255
255
255
255
255
255
255
255
255
255
255
255
255
255
255
255
255
255
255
255
255
255
255
255
255
255
246
246
246
75
75
75
86
109
131
166
211
254
167
212
255
167
212
255
167
212
255
167
212
255
88
111
134
0
0
0
0
0
0
0
0
0
0
0
0
0
0
0
0
0
0
0
0
0
0
0
0
0
0
0
0
0
0
0
0
0
0
0
0
0
0
0
0
0
0
0
0
0
0
0
0
0
0
0
0
0
0
0
0
0
0
0
0
0
0
0
0
0
0
0
0
0
0
0
0
0
0
0
0
0
0
0
0
0
0
0
0
35
45
54
149
189
227
62
79
95
111
111
111
254
254
254
255
255
255
255
255
255
255
255
255
255
255
255
255
255
255
255
255
255
255
255
255
255
255
255
255
255
255
255
255
255
255
255
255
255
255
255
255
255
255
255
255
255
255
255
255
255
255
255
255
255
255
255
255
255
216
216
216
38
39
41
118
150
181
167
212
255
167
212
255
167
212
255
167
212
255
131
166
200
29
37
45
0
0
0
0
0
0
0
0
0
0
0
0
0
0
0
0
0
0
0
0
0
0
0
0
0
0
0
0
0
0
0
0
0
0
0
0
0
0
0
0
0
0
0
0
0
0
0
0
0
0
0
0
0
0
0
0
0
0
0
0
0
0
0
0
0
0
0
0
0
0
0
0
0
0
0
0
0
0
0
0
0
0
0
0
1
1
1
94
119
143
93
118
142
63
63
63
241
241
241
255
255
255
255
255
255
255
255
255
255
255
255
255
255
255
255
255
255
255
255
255
255
255
255
255
255
255
255
255
255
255
255
255
255
255
255
255
255
255
255
255
255
255
255
255
255
255
255
255
255
255
255
255
255
155
155
155
33
41
49
149
190
228
167
212
255
167
212
255
167
212
255
151
192
231
59
76
91
0
0
0
0
0
0
0
0
0
0
0
0
0
0
0
0
0
0
0
0
0
0
0
0
0
0
0
0
0
0
0
0
0
0
0
0
0
0
0
0
0
0
0
0
0
0
0
0
0
0
0
0
0
0
0
0
0
0
0
0
0
0
0
0
0
0
0
0
0
0
0
0
0
0
0
0
0
0
0
0
0
0
0
0
0
0
0
0
0
0
29
37
44
87
110
133
32
35
38
206
206
206
255
255
255
255
255
255
255
255
255
255
255
255
255
255
255
255
255
255
255
255
255
255
255
255
255
255
255
255
255
255
255
255
255
255
255
255
255
255
255
255
255
255
255
255
255
255
255
255
255
255
255
246
246
246
84
84
84
74
94
114
166
211
254
167
212
255
167
212
255
159
202
243
74
94
113
0
0
0
0
0
0
0
0
0
0
0
0
0
0
0
0
0
0
0
0
0
0
0
0
0
0
0
0
0
0
0
0
0
0
0
0
0
0
0
0
0
0
0
0
0
0
0
0
0
0
0
0
0
0
0
0
0
0
0
0
0
0
0
0
0
0
0
0
0
0
0
0
0
0
0
0
0
0
0
0
0
0
0
0
0
0
0
35
25
11
104
75
32
78
57
24
39
50
61
18
22
27
148
148
148
255
255
255
255
255
255
255
255
255
255
255
255
255
255
255
255
255
255
255
255
255
255
255
255
255
255
255
255
255
255
255
255
255
255
255
255
255
255
255
255
255
255
255
255
255
255
255
255
255
255
255
181
181
181
29
32
36
123
157
189
167
212
255
167
212
255
146
185
223
70
90
108
21
15
6
6
5
2
0
0
0
0
0
0
0
0
0
0
0
0
0
0
0
0
0
0
0
0
0
0
0
0
0
0
0
0
0
0
0
0
0
0
0
0
0
0
0
0
0
0
0
0
0
0
0
0
0
0
0
0
0
0
0
0
0
0
0
0
0
0
0
0
0
0
0
0
0
0
0
0
0
0
0
0
0
0
23
16
7
117
85
36
203
147
63
247
179
76
203
147
63
70
51
21
1
1
1
83
83
83
247
247
247
255
255
255
255
255
255
255
255
255
255
255
255
255
255
255
255
255
255
255
255
255
255
255
255
255
255
255
255
255
255
255
255
255
255
255
255
255
255
255
255
255
255
255
255
255
246
246
246
92
92
92
66
84
101
164
208
250
165
210
252
116
147
177
50
63
76
66
48
20
176
129
55
160
117
50
78
57
24
4
3
1
0
0
0
0
0
0
0
0
0
0
0
0
0
0
0
0
0
0
0
0
0
0
0
0
0
0
0
0
0
0
0
0
0
0
0
0
0
0
0
0
0
0
0
0
0
0
0
0
0
0
0
0
0
0
0
0
0
0
0
0
0
0
0
0
0
0
0
0
0
17
12
5
117
84
36
233
169
72
240
174
74
248
180
77
248
180
77
193
140
59
77
55
23
10
10
10
133
133
133
226
226
226
254
254
254
255
255
255
255
255
255
255
255
255
255
255
255
255
255
255
255
255
255
255
255
255
255
255
255
255
255
255
255
255
255
255
255
255
255
255
255
255
255
255
147
147
147
28
35
41
121
153
185
124
158
190
70
89
107
25
26
24
105
77
33
207
151
65
250
183
79
250
183
79
236
173
74
150
109
47
50
36
15
0
0
0
0
0
0
0
0
0
0
0
0
0
0
0
0
0
0
0
0
0
0
0
0
0
0
0
0
0
0
0
0
0
0
0
0
0
0
0
0
0
0
0
0
0
0
0
0
0
0
0
0
0
0
0
0
0
0
0
0
0
0
0
0
0
0
0
0
0
18
13
5
56
41
17
88
64
27
205
149
63
248
180
77
248
180
77
214
155
66
111
80
34
26
19
8
52
52
52
120
120
120
179
179
179
221
221
221
242
242
242
252
252
252
254
254
254
255
255
255
255
255
255
255
255
255
255
255
255
254
254
254
253
253
253
241
241
241
168
168
168
37
37
37
26
33
40
53
68
82
30
29
26
85
62
26
168
123
53
246
180
77
250
183
79
250
183
79
246
180
78
225
164
71
221
161
69
129
94
40
21
15
6
0
0
0
0
0
0
0
0
0
0
0
0
0
0
0
0
0
0
0
0
0
0
0
0
0
0
0
0
0
0
0
0
0
0
0
0
0
0
0
0
0
0
0
0
0
0
0
0
0
0
0
0
0
0
0
0
0
0
0
0
0
0
0
0
0
0
0
0
0
0
0
0
42
30
13
212
154
65
248
180
77
248
180
77
248
180
77
246
178
76
199
144
61
138
100
42
78
56
24
40
31
18
33
33
33
62
62
62
94
94
94
118
118
118
136
136
136
147
147
147
149
149
149
141
141
141
124
124
124
98
98
98
62
62
62
21
21
21
1
0
0
58
42
19
117
86
37
184
135
58
240
176
75
250
183
79
250
183
79
250
183
79
250
183
79
165
121
52
38
28
12
34
24
10
14
11
4
0
0
0
0
0
0
0
0
0
0
0
0
0
0
0
0
0
0
0
0
0
0
0
0
0
0
0
0
0
0
0
0
0
0
0
0
0
0
0
0
0
0
0
0
0
0
0
0
0
0
0
0
0
0
0
0
0
0
0
0
0
0
0
0
0
0
0
0
0
0
0
0
0
0
0
97
70
30
247
179
76
247
179
76
241
175
74
245
178
76
248
180
77
248
180
77
248
180
77
240
174
74
144
105
44
25
18
7
0
0
0
0
0
0
0
0
0
0
0
0
0
0
0
0
0
0
0
0
0
0
0
0
0
0
0
0
0
0
0
0
0
22
15
6
164
120
51
249
182
78
250
183
79
250
183
79
250
183
79
249
182
78
250
183
79
250
183
79
196
143
62
34
24
11
0
0
0
0
0
0
0
0
0
0
0
0
0
0
0
0
0
0
0
0
0
0
0
0
0
0
0
0
0
0
0
0
0
0
0
0
0
0
0
0
0
0
0
0
0
0
0
0
0
0
0
0
0
0
0
0
0
0
0
0
0
0
0
0
0
0
0
0
0
0
0
0
0
0
0
0
0
0
0
0
0
66
48
20
133
96
41
111
80
34
76
55
23
149
108
46
247
179
76
248
180
77
248
180
77
169
123
52
53
38
16
0
0
0
0
0
0
0
0
0
0
0
0
0
0
0
0
0
0
0
0
0
0
0
0
0
0
0
0
0
0
0
0
0
0
0
0
0
0
0
83
61
26
229
167
72
250
183
79
250
183
79
247
181
78
158
115
49
168
123
53
235
171
74
245
179
77
79
58
25
0
0
0
0
0
0
0
0
0
0
0
0
0
0
0
0
0
0
0
0
0
0
0
0
0
0
0
0
0
0
0
0
0
0
0
0
0
0
0
0
0
0
0
0
0
0
0
0
0
0
0
0
0
0
0
0
0
0
0
0
0
0
0
0
0
0
0
0
0
0
0
0
0
0
0
0
0
0
0
0
0
0
0
0
0
0
0
0
0
0
3
2
0
146
106
45
248
180
77
240
174
74
142
103
43
33
24
10
0
0
0
0
0
0
0
0
0
0
0
0
0
0
0
0
0
0
0
0
0
0
0
0
0
0
0
0
0
0
0
0
0
0
0
0
0
0
0
0
0
0
0
0
0
117
86
37
247
181
78
250
183
79
229
167
72
43
32
13
9
6
3
59
43
18
95
69
29
36
26
11
0
0
0
0
0
0
0
0
0
0
0
0
0
0
0
0
0
0
0
0
0
0
0
0
0
0
0
0
0
0
0
0
0
0
0
0
0
0
0
0
0
0
0
0
0
0
0
0
0
0
0
0
0
0
0
0
0
0
0
0
0
0
0
0
0
0
0
0
0
0
0
0
0
0
0
0
0
0
0
0
0
0
0
0
0
0
0
0
0
0
20
15
6
196
142
60
184
133
57
94
68
29
3
2
1
0
0
0
0
0
0
0
0
0
0
0
0
0
0
0
0
0
0
0
0
0
0
0
0
0
0
0
0
0
0
0
0
0
0
0
0
0
0
0
0
0
0
0
0
0
0
0
0
0
0
0
120
87
37
231
169
73
188
138
59
17
12
5
0
0
0
0
0
0
0
0
0
0
0
0
0
0
0
0
0
0
0
0
0
0
0
0
0
0
0
0
0
0
0
0
0
0
0
0
0
0
0
0
0
0
0
0
0
0
0
0
0
0
0
0
0
0
0
0
0
0
0
0
0
0
0
0
0
0
0
0
0
0
0
0
0
0
0
0
0
0
0
0
0
0
0
0
0
0
0
0
0
0
0
0
0
0
0
0
0
0
0
0
0
0
6
5
2
66
48
20
22
15
7
0
0
0
0
0
0
0
0
0
0
0
0
0
0
0
0
0
0
0
0
0
0
0
0
0
0
0
0
0
0
0
0
0
0
0
0
0
0
0
0
0
0
0
0
0
0
0
0
0
0
0
0
0
0
0
0
0
0
0
0
80
58
25
77
57
24
0
0
0
0
0
0
0
0
0
0
0
0
0
0
0
0
0
0
0
0
0
0
0
0
0
0
0
0
0
0
0
0
0
0
0
0
0
0
0
0
0
0
0
0
0
0
0
0
0
0
0
0
0
0
0
0
0
0
0
0
0
0
0
0
0
0
0
0
0
0
0
0
0
0
0
0
0
0
0
0
0
0
0
0
0
0
0
0
0
0
0
0
0
0
0
0
0
0
0
0
0
0
0
0
0
0
0
0
0
0
0
0
0
0
0
0
0
0
0
0
0
0
0
0
0
0
0
0
0
0
0
0
0
0
0
0
0
0
0
0
0
0
0
0
0
0
0
0
0
0
0
0
0
0
0
0
0
0
0
0
0
0
0
0
0
0
0
0
0
0
0
0
0
0
0
0
0
0
0
0
0
0
0
0
0
0
0
0
0
0
0
0
0
0
0
0
0
0
0
0
0
0
0
0
0
0
0
0
0
0
0
0
0
0
0
0
0
0
0
0
0
0
0
0
0
0
0
0
0
0
0
0
0
0
0
0
0
0
0
0
0
0
0
0
0
0
0
0
0
0
0
0
0
0
0
0
0
0
0
0
0
0
0
0
0
0
0
0
0
0
0
0
0
0
0
0
0
0
0
0
0
0
0
0
0
0
0
0
0
0
0
0
0
0
0
0
0
0
0
0
0
0
0
0
0
0
0
0
0
0
0
0
0
0
0
0
0
0
0
0
0
0
0
0
0
0
0
0
0
0
0
0
0
0
0
0
0
0
0
0
0
0
0
0
0
0
0
0
0
0
0
0
0
0
0
0
0
0
0
0
0
0
0
0
0
0
0
0
0
0
0
0
0
0
0
0
0
0
0
0
0
0
0
0
0
0
0
0
0
0
0
0
0
0
0
0
0
0
0
0
0
0
0
0
0
0
0
0
0
0
0
0
0
0
0
0
0
0
0
0
0
0
0
0
0
0
0
0
0
0
0
0
0
0
0
0
0
0
0
0
0
0
0
0
0
0
0
0
0
0
0
0
0
0
0
0
0
0
0
0
0
0
0
0
0
0
0
0
0
0
0
0
0
0
0
0
0
0
0
0
0
0
0
0
0
0
0
0
0
0
0
0
0
0
0
0
0
0
0
0
0
0
0
0
0
0
0
0
0
0
0
0
0
0
0
0
0
0
0
0
0
0
0
0
0
0
0
0
0
0
0
0
0
0
0
0
0
0
0
0
0
0
0
0
0
0
0
0
0
0
0
0
0
0
0
0
0
0
0
0
0
0
0
0
0
0
0
0
0
0
0
0
0
0
0
0
0
0
0
0
0
0
0
0
0
0
0
0
0
0
0
0
0
0
0
0
0
0
0
0
0
0
0
0
0
0
0
0
0
0
0
0
0
0
0
0
0
0
0
0
0
0
0
0
0
0
0
0
0
0
0
0
0
0
0
0
0
0
0
0
0
0
0
0
0
0
0
0
0
0
0
0
0
0
0
0
0
0
0
0
0
0
0
0
0
0
0
0
0
0
0
0
0
0
0
0
0
0
0
0
0
0
0
0
0
0
0
0
0
0
0
0
0
0
0
0
0
0
0
0
0
0
0
0
0
0
0
0
0
0
0
0
0
0
0
0
0
0
0
0
0
0
0
0
0
0
0
0
0
0
0
0
0
0
0
0
0
0
0
0
0
0
0
0
0
0
0
0
0
0
0
0
0
0
0
0
0
0
0
0
0
0
0
0
0
0
0
0
0
0
0
0
0
0
0
0
0
0
0
0
0
0
0
0
0
0
0
0
0
0
0
0
0
0
0
0
0
0
0
0
0
0
0
0
0
0
0
0
0
0
0
0
0
0
0
0
0
0
0
0
0
0
0
0
0
0
0
0
0
0
0
0
0
0
0
0
0
0
0
0
0
0
0
0
0
0
0
0
0
0
0
0
0
0
0
0
0
0
0
0
0
0
0
0
0
0
0
0
0
0
0
0
0
0
0
0
0
0
0
0
0
0
0
0
0
0
0
0
0
0
0
0
0
0
0
0
0
0
0
0
0
0
0
0
0
0
0
0
0
0
0
0
0
0
0
0
0
0
0
0
0
0
0
0
0
0
0
0
0
0
0
0
0
0
0
0
0
0
0
0
0
0
0
0
0
0
0
0
0
0
0
0
0
0
0
0
0
0
0
0
0
0
0
0
0
0
0
0
0
0
0
0
0
0
0
0
0
0
0
0
0
0
0
0
0
0
0
0
0
0
0
0
0
0
0
0
0
0
0
0
0
0
0
0
0
0
0
0
0
0
0
0
0
0
0
0
0
0
0
0
0
0
0
0
0
0
0
0
0
0
0
0
0
0
0
0
0
0
0
0
0
0
0
0
0
0
0
0
0
0
0
0
0
0
0
0
0
0
0
0
0
0
0
0
0
0
0
0
0
0
0
0
0
0
0
0
0
0
0
0
0
0
0
0
0
0
0
0
0
0
0
0
0
0
0
0
0
0
0
0
0
0
0
0
0
0
0
0
0
0
0
0
0
0
0
0
0
0
0
0
0
0
0
0
0
0
0
0
0
0
0
0
0
0
0
0
0
0
0
0
0
0
0
0
0
0
0
0
0
0
0
0
0
0
0
0
0
0
0
0
0
0
0
0
0
0
0
0
0
0
0
0
0
0
0
0
0
0
0
0
0
0
0
0
0
0
0
0
0
0
0
0
0
0
0
0
0
0
0
0
0
0
0
0
0
0
0
0
0
0
0
0
0
0
0
0
0
0
0
0
0
0
0
0
0
0
0
0
0
0
0
0
0
0
0
0
0
0
0
0
0
0
0
0
0
0
0
0
0
0
0
0
0
0
0
0
0
0
0
0
0
0
0
0
0
0
0
0
0
0
0
0
0
0
0
0
0
0
0
0
0
0
0
0
0
0
0
0
0
0
0
0
0
0
0
0
0
0
0
0
0
0
0
0
0
0
0
0
0
0
0
0
0
0
0
0
0
0
0
0
0
0
0
0
0
0
0
0
0
0
0
0
0
0
0
0
0
0
0
0
0
0
0
0
0
0
0
0
0
0
0
0
0
0
0
0
0
0
0
0
0
0
0
0
0
0
0
0
0
0
0
0
0
0
0
0
0
0
0
0
0
0
0
0
0
0
0
0
0
0
0
0
0
0
0
0
0
0
0
0
0
0
0
0
0
0
0
0
0
0
0
0
0
0
0
0
0
0
0
0
0
0
0
0
0
0
0
0
0
0
0
0
0
0
0
0
0
0
0
0
0
0
0
0
0
0
0
0
0
0
0
0
0
0
0
0
0
0
0
0
0
0
0
0
0
0
0
0
0
0
0
0
0
0
0
0
0
0
0
0
0
0
0
0
0
0
0
0
0
0
0
0
0
0
0
0
0
0
0
0
0
0
0
0
0
0
0
0
0
0
0
0
0
0
0
0
0
0
0
0
0
0
0
0
0
0
0
0
0
0
0
0
0
0
0
0
0
0
0
0
0
0
0
0
0
0
0
0
0
0
0
0
0
0
0
0
0
0
0
0
0
0
0
0
0
0
0
0
0
0
0
0
0
0
0
0
0
0
0
0
0
0
0
0
0
0
0
0
0
0
0
0
0
0
0
0
0
0
0
0
0
0
0
0
0
0
0
0
0
0
0
0
0
0
0
0
0
0
0
0
0
0
0
0
0
0
0
0
0
0
0
0
0
0
0
0
0
0
0
0
0
0
0
0
0
0
0
0
0
0
0
0
0
0
0
0
0
0
0
0
0
0
0
0
0
0
0
0
0
0
0
0
0
0
0
0
0
0
0
0
0
0
0
0
0
0
0
0
0
0
0
0
0
0
0
0
0
0
0
0
0
0
0
0
0
0
0
0
0
0
0
0
0
0
0
0
0
0
0
0
0
0
0
0
0
0
0
0
0
0
0
0
0
0
0
0
0
0
0
0
0
0
0
0
0
0
0
0
0
0
0
0
0
0
0
0
0
0
0
0
0
0
0
0
0
0
0
0
0
0
0
0
0
0
0
0
0
0
0
0
0
0
0
0
0
0
0
0
0
0
0
0
0
0
0
0
0
0
0
0
0
0
0
0
0
0
0
0
0
0
0
0
0
0
0
0
0
0
0
0
0
0
0
0
0
0
0
0
0
0
0
0
0
0
0
0
0
0
0
0
0
0
0
0
0
0
0
0
0
0
0
0
0
0
0
0
0
0
0
0
0
0
0
0
0
0
0
0
0
0
0
0
0
0
0
0
0
0
0
0
0
0
0
0
0
0
0
0
0
0
0
0
0
0
0
0
0
0
0
0
0
0
0
0
0
0
0
0
0
0
0
0
0
0
0
0
0
0
0
0
0
0
0
0
0
0
0
0
0
0
0
0
0
0
0
0
0
0
0
0
0
0
0
0
0
0
0
0
0
0
0
0
0
0
0
0
0
0
0
0
0
0
0
0
0
0
0
0
0
0
0
0
0
0
0
0
0
0
0
0
0
0
0
0
0
0
0
0
0
0
0
0
0
0
0
0
0
0
0
0
0
0
0
0
0
0
0
0
0
0
0
0
0
0
0
0
0
0
0
0
0
0
0
0
0
0
0
0
0
0
0
0
0
0
0
0
0
0
0
0
0
0
0
0
0
0
0
0
0
0
0
0
0
0
0
0
0
0
0
0
0
0
0
0
0
0
0
0
0
0
0
0
0
0
0
0
0
0
0
0
0
0
0
0
0
0
0
0
0
0
0
0
0
0
0
0
0
0
0
0
0
0
0
0
0
0
0
0
0
0
0
0
0
0
0
0
0
0
0
0
0
0
0
0
0
0
0
0
0
0
0
0
0
0
0
0
0
0
0
0
0
0
0
0
0
0
0
0
0
0
0
0
0
0
0
0
0
0
0
0
0
0
0
0
0
0
0
0
0
0
0
0
0
0
0
0
0
0
0
0
0
0
0
0
0
0
0
0
0
0
0
0
0
0
0
0
0
0
0
0
0
0
0
0
0
0
0
0
